<?xml version="1.0" standalone="no"?>
<!DOCTYPE svg PUBLIC "-//W3C//DTD SVG 20010904//EN"
 "http://www.w3.org/TR/2001/REC-SVG-20010904/DTD/svg10.dtd">
<svg version="1.0" xmlns="http://www.w3.org/2000/svg"
 width="1132.000000pt" height="1132.000000pt" viewBox="0 0 1132.000000 1132.000000"
 preserveAspectRatio="xMidYMid meet">
<metadata>
Created by potrace 1.14, written by Peter Selinger 2001-2017
</metadata>
<g transform="translate(0.000000,1132.000000) scale(0.100000,-0.100000)"
fill="#000000" stroke="none">
<path d="M5738 10253 c-16 -2 -28 -9 -28 -14 0 -6 -5 -7 -12 -3 -15 10 -99 5
-113 -5 -5 -5 -55 -21 -110 -36 -55 -15 -104 -32 -109 -36 -6 -5 -19 -9 -31
-9 -31 0 -193 -68 -254 -107 -30 -19 -64 -39 -77 -44 -13 -4 -24 -13 -24 -18
0 -6 -21 -23 -47 -38 -57 -32 -65 -42 -57 -67 5 -15 3 -18 -10 -13 -9 4 -27 1
-41 -5 -14 -6 -27 -9 -29 -7 -2 2 0 29 5 59 11 68 4 93 -22 85 -17 -6 -19 -1
-19 57 0 51 -6 72 -30 115 -36 63 -63 83 -113 83 -40 0 -80 -31 -92 -71 -4
-11 -10 -19 -14 -19 -17 0 -61 -131 -61 -181 0 -19 -5 -51 -10 -71 -11 -39 1
-111 20 -123 5 -3 19 15 31 41 21 43 21 48 6 59 -18 13 -17 29 9 141 26 111
64 164 118 164 34 0 66 -25 66 -52 0 -9 6 -21 13 -27 8 -6 13 -28 12 -56 -1
-25 1 -48 5 -50 14 -8 -35 -191 -57 -213 -7 -7 -13 -22 -13 -33 0 -10 -4 -19
-10 -19 -8 0 -50 -59 -95 -132 -5 -9 -44 -60 -85 -113 -41 -53 -96 -124 -123
-158 -61 -80 -158 -178 -172 -174 -5 2 -32 -2 -60 -9 -27 -8 -64 -14 -81 -14
-16 0 -35 -5 -40 -10 -6 -6 -32 -12 -60 -14 -27 -2 -76 -10 -109 -19 -33 -9
-81 -19 -108 -22 -26 -4 -50 -11 -53 -16 -3 -5 -20 -9 -37 -9 -54 -1 -288 -76
-332 -106 -11 -8 -29 -14 -41 -14 -12 0 -27 -7 -34 -15 -7 -8 -20 -15 -29 -15
-9 -1 -47 -21 -86 -45 -38 -25 -81 -50 -95 -56 -27 -11 -76 -54 -227 -201 -93
-90 -125 -116 -108 -87 4 6 9 32 12 57 3 26 9 52 15 59 5 7 7 16 4 21 -3 5 6
32 19 61 14 28 25 57 25 63 1 45 154 364 208 433 66 85 160 129 192 90 7 -8
16 -13 20 -10 16 10 16 -20 1 -32 -13 -10 -14 -15 -3 -30 23 -33 25 -45 11
-54 -12 -7 -12 -9 0 -9 9 0 11 -7 6 -22 -4 -13 -8 -36 -10 -52 -2 -16 -8 -32
-14 -35 -5 -4 -6 -12 -2 -19 4 -7 6 -25 3 -39 -4 -20 -1 -24 14 -21 15 3 19
12 19 50 0 40 3 48 22 53 18 4 22 13 23 52 3 79 0 126 -9 137 -5 6 -11 23 -15
38 -10 42 -62 76 -121 78 -67 2 -69 2 -57 -13 9 -11 2 -13 -36 -13 -41 1 -48
-2 -60 -26 -7 -16 -17 -28 -23 -28 -5 0 -9 -11 -9 -24 0 -13 -7 -29 -15 -36
-8 -7 -15 -18 -15 -26 0 -7 -8 -15 -17 -18 -21 -7 -67 -82 -58 -96 3 -5 -10
-25 -30 -44 -20 -21 -35 -45 -35 -59 0 -25 -25 -83 -40 -92 -6 -4 -5 -14 2
-24 10 -16 7 -23 -15 -42 -15 -14 -27 -37 -29 -54 -1 -16 -5 -34 -9 -40 -3 -5
-9 -22 -13 -37 -5 -21 -3 -28 9 -28 22 0 18 -21 -5 -27 -19 -5 -20 -20 -4 -71
2 -8 1 -19 -3 -25 -5 -7 -8 -40 -9 -75 -1 -58 -4 -67 -36 -100 -19 -20 -41
-48 -50 -62 -9 -14 -38 -50 -64 -80 -27 -31 -62 -73 -79 -93 -16 -21 -54 -63
-84 -95 -69 -74 -181 -211 -181 -223 0 -18 -17 -8 -31 19 -7 15 -24 41 -36 58
-13 17 -23 36 -23 42 0 30 -101 73 -210 91 -25 4 -55 13 -67 19 -12 7 -31 12
-42 12 -14 0 -30 20 -60 82 -23 45 -41 89 -41 97 0 15 -14 62 -36 121 -7 19
-15 48 -19 63 -9 45 -25 21 -21 -33 2 -27 1 -52 -2 -55 -10 -10 -8 -49 2 -57
6 -4 5 -12 -2 -21 -12 -14 -7 -72 8 -92 4 -5 11 -26 15 -45 4 -23 21 -48 47
-71 l41 -37 -33 -29 c-35 -32 -38 -42 -47 -181 -6 -89 -5 -93 16 -99 21 -5 30
-23 11 -23 -5 0 -10 -7 -10 -15 0 -8 6 -15 14 -15 12 0 13 -7 6 -32 -6 -19 -6
-36 0 -43 5 -6 7 -20 4 -32 -6 -22 11 -63 25 -63 11 0 21 23 31 70 16 73 41
156 54 185 8 17 20 44 26 62 17 45 32 55 93 59 59 5 97 -10 97 -38 0 -11 5
-28 10 -39 15 -26 4 -24 -27 7 -18 19 -28 23 -36 15 -8 -8 -8 -16 -1 -29 7
-10 15 -32 19 -50 4 -21 16 -37 30 -44 21 -9 22 -12 9 -25 -8 -9 -12 -23 -9
-34 4 -11 -2 -33 -14 -53 -12 -18 -21 -45 -21 -59 0 -14 -5 -29 -10 -32 -17
-11 -52 -86 -46 -101 3 -8 17 -14 31 -14 30 0 30 0 6 -75 -11 -33 -25 -80 -32
-105 -7 -25 -16 -49 -19 -55 -4 -5 -14 -39 -24 -75 -10 -36 -25 -84 -33 -108
-8 -23 -12 -50 -9 -59 4 -9 0 -23 -8 -32 -7 -9 -16 -32 -19 -51 -17 -104 -28
-120 -57 -85 -7 8 -21 15 -31 15 -10 0 -20 4 -23 9 -3 4 -36 18 -74 30 -38 12
-76 29 -85 39 -17 19 -77 132 -77 145 0 5 9 22 21 38 16 22 26 28 46 25 14 -3
26 -6 27 -8 0 -2 11 -17 23 -35 13 -18 30 -54 39 -80 8 -26 18 -55 21 -63 3
-8 5 -25 4 -37 -2 -16 3 -23 14 -23 14 0 15 8 10 56 -3 31 -13 68 -23 82 -9
14 -15 36 -14 48 4 29 -50 90 -95 109 -36 15 -40 14 -108 -28 -68 -42 -81 -56
-93 -105 -10 -37 -11 -60 -3 -90 12 -44 75 -112 103 -112 10 0 26 -16 38 -40
12 -23 35 -49 53 -60 18 -10 40 -26 49 -36 10 -10 37 -18 65 -19 26 -2 51 -4
54 -4 3 -1 15 -10 27 -21 19 -18 22 -31 22 -104 0 -46 -5 -108 -11 -137 -6
-30 -12 -115 -15 -189 -3 -74 -7 -153 -9 -175 -2 -22 -6 -92 -9 -156 -5 -126
-20 -250 -38 -314 -21 -78 -71 -210 -83 -225 -8 -8 -16 -27 -20 -42 -8 -30
-65 -62 -73 -39 -2 6 -12 20 -22 29 -29 28 -47 73 -54 136 -6 50 -4 61 12 72
10 7 24 30 31 51 7 22 21 50 31 63 16 21 22 23 38 14 21 -14 52 3 52 28 0 9 7
21 15 28 8 7 15 21 15 31 0 10 5 21 10 24 16 10 12 45 -5 45 -8 0 -15 -4 -15
-10 0 -5 -15 -16 -33 -25 -19 -9 -44 -29 -56 -45 -12 -17 -25 -30 -29 -30 -4
0 -6 26 -5 58 3 74 -6 122 -23 122 -21 0 -33 -31 -20 -52 9 -16 7 -23 -13 -39
-15 -12 -21 -23 -15 -27 13 -9 16 -59 4 -67 -6 -3 -10 -15 -10 -25 0 -10 -5
-20 -10 -22 -6 -2 -12 -31 -14 -65 -2 -35 -10 -73 -18 -85 -27 -41 -29 -117
-6 -180 11 -32 26 -58 32 -58 16 -1 86 -68 86 -83 0 -17 72 -47 112 -47 25 0
41 9 71 43 22 23 44 53 49 67 19 51 29 0 43 -215 2 -38 7 -88 10 -110 12 -78
12 -150 0 -165 -7 -8 -18 -33 -25 -55 -7 -22 -24 -53 -39 -70 -43 -48 -72 -95
-67 -104 3 -5 -5 -12 -18 -15 -25 -6 -62 -57 -112 -154 -18 -35 -37 -69 -41
-75 -5 -7 -16 -32 -23 -57 -8 -25 -20 -54 -27 -65 -7 -11 -13 -34 -13 -52 0
-17 -5 -35 -11 -39 -8 -5 -9 -37 -4 -108 4 -55 7 -123 6 -149 -2 -59 6 -87 25
-87 8 0 14 -7 14 -15 0 -9 -6 -12 -16 -8 -13 5 -15 2 -9 -18 4 -13 13 -37 21
-53 8 -16 11 -39 8 -52 -3 -12 -2 -29 2 -36 11 -17 16 -38 15 -65 -1 -35 17
-27 35 15 11 26 17 69 18 145 0 59 3 107 6 107 3 0 14 -20 24 -44 21 -47 36
-60 81 -70 36 -8 67 19 120 102 50 77 64 111 75 178 13 80 12 107 -4 129 -13
18 -14 18 -32 -3 -10 -12 -25 -22 -32 -22 -7 0 -27 -13 -44 -30 -16 -16 -33
-30 -38 -30 -14 0 -48 -54 -42 -68 3 -11 0 -12 -15 -3 -16 8 -19 19 -17 58 2
57 26 144 48 178 9 13 16 30 16 38 0 15 66 145 85 167 8 8 26 39 42 69 15 30
33 56 40 58 7 3 14 -16 18 -49 4 -29 16 -90 26 -136 10 -45 19 -95 19 -110 0
-16 4 -32 9 -37 6 -6 14 -35 19 -65 12 -70 68 -250 81 -263 6 -6 11 -23 11
-37 0 -15 9 -35 19 -44 11 -10 17 -25 14 -36 -3 -12 1 -22 11 -26 9 -3 13 -10
10 -15 -5 -9 21 -67 101 -229 58 -117 53 -113 91 -105 36 6 52 -9 41 -37 -4
-8 -8 -5 -12 10 -4 12 -11 22 -16 22 -15 0 -10 -77 5 -89 7 -6 31 -41 52 -76
20 -36 41 -65 46 -65 4 0 15 -15 23 -32 9 -18 23 -46 32 -62 12 -23 13 -33 4
-48 -9 -14 -8 -18 4 -18 22 0 36 -34 41 -103 15 -183 9 -237 -28 -237 -12 0
-18 -7 -18 -22 0 -13 -21 -46 -48 -75 -47 -52 -47 -52 -87 -42 -68 18 -89 42
-88 102 1 83 13 127 33 127 25 0 46 28 32 42 -9 9 -18 9 -34 1 -13 -6 -30 -14
-39 -16 -9 -3 -23 -19 -30 -36 -8 -18 -19 -29 -26 -26 -20 7 -21 -94 -2 -106
5 -3 7 -13 4 -22 -4 -9 2 -24 14 -36 12 -12 21 -24 21 -27 0 -8 83 -87 118
-112 38 -27 82 -28 115 -2 14 11 32 17 41 14 9 -3 16 -1 16 6 0 6 -6 8 -13 5
-6 -4 -1 2 13 13 18 15 29 40 40 89 14 59 18 68 36 65 18 -2 22 4 28 35 9 60
7 167 -6 242 -7 39 -9 73 -5 77 4 4 31 2 59 -4 29 -7 94 -14 143 -18 50 -3
110 -7 135 -9 73 -6 251 -16 305 -16 154 -1 306 5 312 13 3 6 21 7 39 3 19 -3
40 -2 47 2 6 4 55 9 107 10 193 5 284 13 308 29 13 9 29 13 36 11 7 -3 19 -2
26 3 7 4 28 3 47 -2 42 -11 93 -2 93 18 0 12 4 12 25 -2 21 -13 38 -15 88 -9
34 4 85 9 112 11 28 1 75 7 105 13 51 9 58 8 93 -16 30 -21 52 -27 102 -28 69
-3 132 19 127 43 -1 7 8 16 20 21 20 8 77 54 116 93 86 88 149 173 182 242 45
96 46 101 66 236 23 160 26 256 8 325 -8 33 -19 78 -25 100 -6 21 -14 44 -18
50 -5 5 -12 30 -16 55 -4 25 -11 50 -15 55 -4 6 -20 51 -35 100 -15 50 -41
119 -57 155 -29 63 -30 68 -25 185 4 92 11 138 31 199 34 105 110 247 155 289
41 40 160 107 188 107 41 -1 87 -73 85 -132 -1 -16 2 -28 6 -28 4 0 7 -21 7
-47 0 -41 -5 -53 -34 -81 -26 -26 -32 -38 -27 -58 6 -23 4 -25 -21 -22 -25 3
-29 8 -33 50 -10 87 -32 78 -36 -14 -2 -60 -1 -63 37 -99 29 -28 45 -36 61
-32 32 8 67 42 85 83 8 19 22 48 30 63 8 16 13 40 10 54 -3 14 -1 38 3 52 10
37 -17 157 -43 193 -49 68 -95 106 -136 113 -44 7 -92 0 -131 -20 -14 -8 -36
-16 -50 -19 -58 -12 -199 -165 -216 -233 -8 -28 3 -43 16 -23 5 8 13 11 17 6
9 -9 -24 -36 -44 -36 -7 0 -13 -8 -13 -18 0 -11 -6 -32 -14 -48 -20 -41 -31
-114 -17 -114 6 0 11 -7 11 -15 0 -8 -7 -15 -14 -15 -12 0 -15 -14 -15 -60 1
-75 -9 -92 -29 -54 -9 16 -17 35 -18 43 -2 8 -9 28 -18 45 -69 143 -96 206
-96 219 0 8 -11 38 -25 65 -14 28 -25 56 -25 63 0 8 -16 47 -35 86 -19 40 -35
79 -35 88 0 8 -4 23 -9 33 -5 9 -20 44 -33 77 -12 33 -31 75 -40 93 -10 18
-18 38 -18 44 0 6 -9 31 -20 54 -41 84 -115 508 -91 524 4 3 10 26 13 52 6 54
48 118 102 155 20 13 36 28 36 33 0 6 9 10 20 10 12 0 32 7 45 16 14 9 26 15
26 13 1 -2 3 -29 5 -59 3 -30 5 -62 6 -70 0 -8 -2 -35 -6 -60 -5 -25 -8 -71
-8 -102 0 -63 -9 -70 -44 -37 l-21 20 -5 -25 c-3 -14 1 -36 8 -48 7 -13 18
-33 23 -46 12 -26 54 -66 92 -87 25 -13 29 -13 52 9 35 32 77 116 93 184 21
90 12 284 -16 346 -32 69 -94 134 -137 142 -59 11 -179 -24 -204 -59 -4 -5
-17 -14 -29 -20 -13 -7 -41 -33 -63 -59 -31 -37 -42 -62 -55 -120 -19 -88 -21
-353 -3 -371 17 -17 13 -34 -9 -40 -11 -3 -20 -13 -20 -22 0 -9 9 -19 20 -22
23 -6 27 -23 5 -23 -8 0 -15 -7 -15 -15 0 -8 7 -15 15 -15 8 0 15 -4 15 -10 0
-5 -4 -10 -10 -10 -5 0 -10 -13 -10 -30 0 -20 5 -30 15 -30 17 0 20 -16 5 -25
-13 -8 -13 -45 0 -45 6 0 8 -10 4 -24 -4 -17 1 -31 15 -45 12 -12 21 -28 21
-37 0 -9 9 -18 20 -21 21 -6 45 -65 36 -88 -8 -21 3 -45 20 -45 17 0 18 -17 2
-23 -10 -3 -10 -9 0 -27 19 -32 8 -36 -49 -16 -41 15 -70 18 -152 14 l-101 -5
-36 38 c-20 22 -42 39 -48 39 -7 0 -12 4 -12 10 0 14 -81 71 -92 64 -5 -3 -17
1 -26 9 -22 20 -54 25 -59 11 -2 -7 10 -18 27 -25 16 -8 30 -19 30 -26 0 -6
23 -27 50 -47 28 -20 50 -40 50 -45 0 -13 159 -131 178 -131 8 0 24 7 33 16
49 44 249 -68 249 -139 0 -9 5 -19 10 -22 6 -3 10 -16 10 -28 0 -12 13 -49 29
-82 16 -33 32 -78 36 -100 3 -22 15 -56 25 -75 10 -19 33 -63 50 -98 17 -35
37 -65 45 -68 7 -3 16 -16 19 -30 4 -13 13 -24 21 -24 8 0 15 -8 15 -17 0 -10
9 -26 20 -38 35 -34 80 -97 80 -110 0 -7 7 -18 15 -25 8 -7 15 -26 15 -42 0
-20 6 -31 18 -35 13 -3 18 -15 20 -49 2 -53 9 -67 28 -60 16 6 19 -10 4 -19
-16 -10 -11 -35 7 -35 12 0 14 -3 6 -11 -7 -7 -30 -5 -80 10 -80 24 -254 29
-345 10 -64 -13 -166 -60 -207 -95 -85 -71 -111 -131 -115 -264 -2 -66 0 -77
20 -97 13 -13 19 -23 14 -23 -32 0 19 -64 51 -65 27 -2 76 -47 109 -100 27
-44 58 -46 98 -5 25 24 39 30 75 30 37 0 49 6 79 36 23 22 40 52 48 82 7 26
14 55 17 65 11 41 -32 7 -60 -48 -11 -22 -29 -35 -65 -48 -28 -9 -56 -15 -64
-13 -7 2 -25 7 -39 10 -45 10 -44 71 2 172 12 29 32 50 61 67 103 60 116 65
126 55 6 -6 16 -7 27 -1 15 9 36 6 111 -12 20 -6 25 -255 7 -370 -14 -91 -35
-142 -100 -242 -69 -107 -94 -127 -152 -119 -28 4 -49 13 -58 26 -24 34 -45
39 -121 30 -51 -7 -80 -6 -100 2 -18 8 -119 12 -307 12 l-280 1 -7 64 c-4 35
-10 71 -14 80 -4 9 -10 68 -15 131 -4 63 -12 162 -18 220 -15 152 -20 219 -26
365 -4 72 -9 164 -13 205 -9 92 -7 620 3 785 4 66 9 190 12 275 9 257 11 295
33 535 5 55 12 145 15 200 9 127 11 154 25 245 7 41 14 98 16 125 2 28 10 91
18 140 9 50 20 119 26 155 24 143 30 171 68 325 66 262 89 344 133 470 22 66
47 140 54 165 27 90 89 240 99 240 7 0 66 -90 66 -101 0 -6 8 -23 18 -37 10
-15 24 -42 31 -59 8 -18 16 -33 20 -33 4 0 19 -24 34 -54 15 -30 34 -57 42
-60 8 -3 15 -15 15 -26 0 -11 7 -23 15 -26 8 -4 15 -16 15 -29 0 -12 7 -28 15
-35 8 -7 15 -18 15 -25 0 -7 6 -18 14 -24 8 -7 18 -26 21 -42 4 -17 13 -33 21
-36 8 -3 14 -13 14 -23 0 -10 7 -23 15 -30 8 -7 15 -18 15 -25 0 -8 11 -26 24
-42 13 -15 27 -42 30 -59 4 -18 20 -49 36 -70 16 -22 30 -47 30 -57 0 -10 16
-38 35 -61 19 -24 35 -49 35 -56 0 -17 56 -115 76 -131 9 -7 20 -22 25 -34 10
-21 27 -48 69 -107 54 -77 100 -149 100 -158 0 -6 5 -10 10 -10 6 0 26 -33 44
-73 19 -40 44 -81 55 -91 12 -11 21 -23 21 -29 0 -5 13 -26 28 -46 15 -20 34
-49 41 -66 7 -16 21 -35 32 -43 11 -8 33 -43 49 -78 17 -35 34 -64 39 -64 5 0
12 -8 15 -17 10 -28 29 -56 53 -80 13 -13 29 -37 36 -55 8 -18 30 -53 49 -78
18 -25 37 -53 41 -62 3 -10 11 -18 16 -18 5 0 12 -14 16 -31 4 -17 13 -33 21
-36 8 -3 21 -17 29 -32 7 -14 25 -37 38 -51 13 -14 40 -49 61 -78 20 -29 45
-61 56 -72 11 -11 20 -26 20 -34 0 -8 9 -18 20 -21 11 -3 20 -12 20 -19 0 -7
9 -21 20 -31 11 -10 20 -24 20 -32 0 -8 11 -25 24 -38 13 -12 34 -40 46 -62
13 -21 40 -59 62 -85 21 -26 38 -51 38 -57 0 -6 4 -11 8 -11 5 0 19 -19 32
-43 13 -23 43 -70 67 -105 24 -35 43 -70 43 -78 0 -8 4 -14 8 -14 5 0 17 -16
28 -35 10 -19 22 -35 26 -35 5 0 8 -5 8 -12 0 -6 11 -25 24 -42 12 -17 31 -47
41 -66 10 -19 26 -41 36 -48 11 -7 19 -19 19 -26 0 -7 15 -33 32 -57 55 -75
78 -110 78 -118 0 -5 7 -15 16 -22 9 -7 45 -56 81 -109 35 -52 91 -133 123
-180 32 -47 59 -91 59 -97 1 -7 8 -13 16 -13 8 0 15 -8 15 -18 0 -28 46 -71
70 -65 11 3 20 0 20 -6 0 -6 -4 -11 -10 -11 -5 0 -10 -7 -10 -15 0 -19 105
-179 161 -246 22 -26 39 -51 39 -57 0 -5 7 -12 15 -16 8 -3 15 -12 15 -21 0
-8 4 -15 9 -15 5 0 19 -16 32 -35 19 -27 29 -33 46 -29 23 6 32 -9 13 -21 -16
-10 -12 -22 10 -28 13 -3 18 -10 14 -21 -4 -11 -1 -16 10 -16 9 0 21 -11 25
-24 5 -13 16 -26 25 -29 14 -5 14 -10 1 -42 -14 -33 -14 -35 4 -35 10 0 35
-20 55 -45 23 -27 46 -45 58 -45 27 0 118 58 118 75 0 8 9 17 20 20 11 3 20
12 20 20 0 7 7 15 15 19 8 3 15 12 15 20 0 9 18 43 40 77 22 34 40 71 40 82 0
10 6 31 14 45 8 15 24 56 35 92 11 36 28 87 36 113 8 26 15 56 15 67 0 10 5
22 10 25 6 3 10 15 10 26 0 10 4 27 9 37 14 25 24 73 22 104 -1 14 2 29 8 33
6 3 11 29 11 57 0 32 6 58 15 68 9 9 22 51 30 92 8 41 20 94 28 119 21 66 39
168 32 180 -4 5 -2 15 3 22 9 12 23 77 27 132 2 17 12 77 23 135 12 58 21 116
21 130 0 14 4 52 10 85 13 76 33 219 36 265 1 19 7 82 13 140 7 58 14 148 16
200 3 52 6 95 7 95 1 0 3 27 4 60 2 33 6 78 10 100 12 64 15 707 4 727 -7 12
-6 18 1 18 8 0 9 22 6 68 -3 37 -8 115 -11 173 -2 59 -7 113 -10 120 -2 8 -7
61 -10 119 -3 58 -7 121 -9 140 -3 19 -7 60 -11 90 -18 168 -53 389 -65 418
-6 13 -10 36 -10 52 0 16 -4 32 -10 35 -5 3 -10 19 -10 35 0 44 -35 185 -60
245 -5 11 -17 45 -28 75 -11 30 -23 62 -26 71 -9 22 16 28 96 22 35 -2 97 -6
138 -8 41 -2 99 -6 128 -8 29 -2 72 0 95 3 23 3 50 1 59 -4 12 -7 24 -6 42 4
20 10 31 11 51 2 20 -9 25 -19 25 -50 0 -21 -6 -44 -12 -50 -10 -10 -10 -15 1
-21 9 -6 11 -18 7 -34 -3 -14 -2 -29 4 -32 5 -3 10 -11 10 -16 0 -6 -4 -7 -10
-4 -5 3 -10 -1 -10 -9 0 -9 7 -16 16 -16 12 0 15 -6 10 -26 -4 -15 -2 -32 5
-40 9 -11 9 -18 1 -26 -17 -17 -14 -54 8 -121 11 -33 18 -76 16 -97 -3 -28 1
-44 16 -60 11 -12 17 -24 14 -27 -3 -4 -6 -3 -6 2 0 4 -7 2 -15 -5 -15 -12
-22 -70 -8 -70 3 0 14 7 24 16 20 18 46 10 30 -10 -7 -8 -7 -24 0 -50 8 -30
14 -37 30 -33 15 4 17 2 9 -13 -7 -13 -6 -20 5 -24 10 -3 15 -19 15 -44 0 -29
7 -45 26 -63 21 -20 25 -31 21 -61 -3 -24 1 -44 11 -60 9 -13 17 -27 17 -33 3
-44 29 -95 48 -95 16 0 -1 177 -19 206 -10 14 -13 31 -9 45 4 12 3 31 -3 43
-23 49 -63 189 -58 202 3 8 17 14 31 14 18 0 28 7 35 24 5 13 13 25 18 27 19
8 102 159 102 186 0 15 10 48 21 72 12 29 18 55 14 72 -4 18 0 37 10 52 14 22
12 57 -4 57 -12 0 -31 -39 -25 -55 11 -27 -4 -16 -26 20 -25 40 -60 46 -99 16
-20 -15 -25 -29 -27 -81 -2 -38 -10 -70 -19 -80 -13 -14 -13 -19 1 -38 8 -12
11 -22 5 -22 -6 0 -11 -11 -11 -25 0 -22 3 -25 24 -19 36 9 44 -15 13 -41 -15
-11 -27 -28 -27 -38 0 -10 -8 -17 -19 -17 -11 0 -23 -4 -26 -10 -3 -5 -16 -10
-28 -10 -23 0 -45 25 -63 75 -7 19 -17 29 -28 27 -21 -4 -21 7 1 23 16 12 16
23 3 151 -7 77 -13 146 -13 154 1 8 2 41 4 73 l3 57 40 1 c139 2 281 -6 375
-20 67 -10 78 -15 107 -49 18 -20 33 -42 34 -49 0 -7 15 -43 34 -80 38 -77 62
-136 70 -175 3 -15 12 -33 19 -40 7 -7 17 -31 22 -53 7 -29 15 -40 28 -39 9 1
17 -4 17 -12 0 -8 -4 -14 -10 -14 -5 0 -10 -9 -10 -20 0 -11 4 -20 9 -20 11 0
21 -33 26 -90 7 -78 24 -170 45 -250 5 -19 15 -63 22 -97 6 -35 15 -63 19 -63
3 0 6 -28 5 -62 0 -35 5 -110 12 -168 7 -58 15 -170 18 -250 9 -257 12 -405 7
-412 -8 -15 -10 -273 -1 -290 5 -10 4 -19 -2 -23 -5 -3 -9 -40 -9 -83 0 -42
-5 -91 -10 -109 -5 -17 -7 -34 -4 -37 5 -5 5 -48 -2 -186 -2 -36 -6 -132 -9
-213 -3 -81 -7 -151 -10 -155 -2 -4 -1 -28 4 -54 4 -27 4 -50 1 -54 -3 -3 -7
-92 -8 -197 -2 -106 -6 -209 -9 -229 -6 -34 -4 -38 15 -38 12 0 21 -4 21 -10
0 -5 -9 -10 -20 -10 -16 0 -20 -7 -21 -32 -1 -18 -3 -61 -4 -96 -1 -34 -4 -65
-7 -67 -3 -3 -10 7 -17 23 -37 79 -45 92 -58 92 -7 0 -13 -7 -13 -15 0 -20 22
-65 32 -65 4 0 8 -9 8 -21 0 -11 9 -34 21 -50 19 -26 19 -34 9 -84 -6 -30 -9
-59 -6 -64 4 -5 0 -15 -7 -23 -14 -14 -27 -56 -30 -95 -1 -13 -5 -23 -8 -23
-4 0 -17 -27 -29 -60 -13 -34 -25 -59 -27 -56 -2 2 -10 28 -18 58 -13 54 -32
111 -45 138 -4 8 -8 57 -8 107 -1 51 -8 115 -16 144 -9 29 -16 65 -16 80 0 40
-10 59 -30 59 -12 0 -17 8 -18 28 0 15 -6 40 -12 57 -9 23 -13 26 -20 15 -5
-8 -7 -24 -4 -35 3 -11 8 -28 11 -38 4 -14 0 -18 -12 -15 -11 2 -18 14 -20 33
-1 17 -5 41 -9 53 -6 17 -2 23 19 28 l25 6 -5 93 -6 92 26 -4 c24 -5 36 -23
15 -23 -18 0 -11 -16 21 -49 25 -27 30 -29 24 -11 -6 20 -5 21 14 11 21 -12
29 -41 11 -41 -19 0 -10 -31 19 -61 26 -26 28 -34 18 -51 -10 -16 -8 -23 16
-43 15 -13 27 -28 27 -34 0 -10 54 -31 81 -31 23 0 25 28 3 37 -11 4 -12 8 -4
13 18 11 8 130 -11 130 -15 0 -21 -21 -9 -35 8 -10 8 -15 -1 -20 -7 -5 -9 -21
-6 -41 3 -19 4 -34 2 -34 -12 0 -35 64 -30 81 4 11 2 41 -3 67 -6 26 -16 74
-23 107 -7 33 -16 64 -21 70 -4 5 -8 28 -8 51 0 23 -6 47 -13 53 -8 6 -12 23
-9 39 2 18 -2 35 -13 45 -25 25 -35 21 -36 -15 -1 -31 -1 -32 -9 -8 -12 39
-11 50 5 50 8 0 15 9 15 20 0 22 -25 28 -33 8 -3 -10 -10 -8 -23 5 -17 16 -17
17 -1 17 20 0 22 16 4 27 -8 4 -13 19 -13 33 1 14 -3 26 -8 27 -14 2 -26 26
-26 53 0 13 -7 42 -15 65 -8 22 -19 59 -25 83 -13 51 -27 55 -24 7 3 -31 1
-34 -11 -21 -8 8 -15 21 -15 29 0 8 -7 20 -15 27 -12 10 -15 9 -15 -8 0 -11 5
-22 12 -24 9 -3 9 -12 0 -38 -7 -18 -12 -42 -12 -52 0 -11 -7 -26 -15 -34 -13
-13 -18 -13 -44 0 -27 14 -29 14 -24 -3 2 -10 29 -46 59 -80 53 -61 65 -79 43
-65 -7 4 -10 1 -7 -7 3 -8 10 -15 16 -15 23 -3 24 -4 12 -19 -9 -11 -4 -22 29
-55 23 -23 41 -45 41 -50 0 -4 7 -13 15 -20 37 -31 54 -110 23 -110 -6 0 -5 6
3 16 11 13 8 19 -17 39 l-29 23 -9 -21 c-12 -28 -8 -59 9 -72 10 -8 10 -14 1
-26 -18 -25 -51 -29 -64 -8 -17 26 -15 36 8 42 17 4 18 9 10 38 -8 26 -7 35 5
42 22 12 18 27 -6 27 -11 0 -17 4 -14 10 3 5 -1 22 -9 37 l-15 28 -1 -42 c0
-45 -14 -57 -25 -23 -5 17 -60 80 -70 80 -1 0 -5 -12 -8 -27 -6 -32 5 -66 33
-96 12 -12 16 -23 10 -25 -17 -6 -12 -83 7 -104 17 -19 45 -89 38 -96 -7 -8
-25 9 -25 24 0 8 -4 14 -9 14 -5 0 -17 14 -25 30 -9 16 -23 44 -32 60 -8 17
-20 28 -25 25 -12 -8 -12 -35 1 -35 6 0 10 -8 10 -18 0 -11 11 -39 25 -63 13
-24 29 -54 34 -65 5 -12 16 -24 25 -27 9 -4 13 -13 10 -21 -3 -9 5 -25 20 -39
14 -13 26 -29 26 -35 0 -6 7 -18 16 -27 9 -9 13 -19 10 -22 -7 -7 -52 39 -72
73 -6 10 -16 20 -22 22 -17 5 -15 -23 3 -38 8 -7 15 -20 15 -30 0 -10 7 -23
15 -30 8 -7 15 -20 15 -29 0 -10 8 -26 18 -37 20 -21 34 -61 37 -106 2 -15 19
-59 39 -97 20 -38 36 -74 36 -80 0 -6 11 -27 25 -47 13 -20 27 -52 31 -73 4
-20 17 -49 30 -64 13 -16 24 -39 24 -51 0 -12 5 -27 11 -33 17 -17 -15 -109
-48 -137 -34 -29 -43 -25 -43 19 0 18 -6 35 -12 37 -9 3 -8 9 5 22 9 10 17 20
17 24 0 13 -26 82 -33 88 -4 4 -7 16 -7 27 0 11 -3 17 -7 13 -5 -4 -13 14 -19
41 -8 40 -14 48 -30 45 -16 -2 -23 6 -31 32 -8 25 -8 37 1 46 8 8 7 13 -2 19
-20 12 -39 54 -47 103 -8 44 -37 112 -54 123 -6 3 -15 -3 -20 -14 -8 -14 -7
-22 4 -31 8 -7 15 -22 15 -34 0 -12 7 -31 15 -42 8 -10 15 -27 15 -37 0 -34
-25 -11 -58 54 -31 60 -32 68 -24 119 6 30 10 48 11 39 0 -9 8 -22 16 -29 13
-10 15 -9 15 8 0 42 -18 72 -42 69 -19 -2 -23 4 -30 43 -10 56 -37 130 -48
130 -5 0 -11 -12 -13 -27 l-4 -28 -2 29 c0 16 -7 37 -14 45 -7 9 -19 34 -26
56 -7 22 -16 49 -21 60 -4 11 -11 29 -14 39 -5 14 -10 16 -18 8 -7 -7 -8 -15
-1 -24 5 -7 10 -28 12 -47 1 -19 7 -41 13 -48 7 -9 7 -13 -1 -13 -6 0 -11 -9
-11 -21 0 -30 -17 -14 -26 23 -7 36 -25 68 -36 68 -4 0 -5 -6 -2 -14 3 -8 2
-22 -4 -31 -7 -14 -17 -8 -60 41 -41 45 -53 54 -58 41 -4 -10 4 -29 20 -48 14
-17 26 -37 26 -44 0 -14 108 -105 125 -105 6 0 17 -17 24 -37 8 -21 20 -46 29
-55 8 -10 10 -18 4 -18 -6 0 -19 11 -30 25 -11 14 -24 25 -28 25 -5 0 -17 15
-28 33 -13 22 -20 27 -24 18 -2 -8 1 -19 9 -25 8 -6 27 -30 42 -53 16 -23 35
-44 43 -47 8 -3 14 -13 14 -22 0 -13 3 -14 14 -5 11 9 16 5 25 -20 6 -18 9
-35 6 -37 -5 -5 -75 67 -144 148 -19 23 -36 38 -39 35 -3 -3 2 -13 11 -23 10
-10 17 -22 17 -26 0 -5 11 -22 25 -40 13 -17 34 -42 44 -56 11 -14 38 -45 60
-70 34 -38 41 -42 55 -31 18 15 17 16 35 -53 6 -22 9 -41 7 -43 -1 -2 -17 11
-35 28 -18 17 -35 28 -38 25 -10 -9 48 -77 83 -98 38 -23 58 -56 21 -37 -12 7
-32 23 -45 37 -13 13 -26 22 -29 19 -8 -9 35 -66 89 -120 26 -26 48 -52 48
-57 0 -6 7 -10 15 -10 8 0 18 -12 21 -28 4 -15 11 -33 17 -40 14 -18 -28 5
-76 42 -21 16 -40 27 -42 24 -3 -3 12 -25 33 -49 22 -24 37 -49 35 -55 -5 -14
50 -74 68 -74 13 -1 60 -58 86 -104 31 -57 35 -75 27 -117 -4 -24 -7 -48 -5
-53 1 -5 -5 -16 -12 -25 -21 -24 -54 -91 -62 -128 -3 -18 -11 -35 -16 -38 -5
-4 -9 -19 -9 -35 0 -51 -17 -41 -39 23 -36 100 -112 290 -127 314 -8 12 -14
30 -14 40 0 12 6 8 20 -15 11 -18 20 -38 20 -44 0 -6 11 -26 25 -44 14 -18 29
-44 35 -58 13 -35 33 -34 26 2 -24 125 -40 192 -48 192 -5 0 -8 -20 -7 -45 4
-60 -8 -68 -16 -11 -4 26 -11 49 -16 52 -5 3 -9 16 -9 29 0 13 -4 27 -10 30
-5 3 -10 1 -10 -6 0 -10 -3 -10 -12 -1 -7 7 -20 12 -29 12 -20 0 -35 48 -20
63 8 8 11 3 11 -15 0 -35 19 -46 37 -22 8 10 16 18 18 17 3 -2 4 0 3 5 -2 4
-9 6 -15 6 -7 -1 -13 9 -13 22 0 17 -6 24 -20 24 -29 0 -47 53 -65 197 -2 18
-9 41 -14 52 -6 10 -8 21 -5 24 3 3 2 12 -2 19 -5 7 -9 16 -9 20 0 3 -3 10 -7
14 -5 4 -8 -6 -8 -22 0 -17 4 -34 10 -40 5 -5 5 -15 1 -23 -6 -10 -12 -3 -21
23 -14 45 -30 47 -31 4 0 -18 -3 -26 -6 -18 -2 8 -11 29 -19 47 -8 17 -14 38
-14 47 0 28 -62 280 -71 290 -5 6 -7 -17 -3 -55 5 -61 4 -63 -11 -41 -9 12
-22 22 -29 22 -8 0 -17 8 -20 17 -13 35 -37 73 -47 73 -13 0 -11 -12 6 -53 8
-20 12 -48 9 -64 -4 -21 0 -33 15 -47 12 -11 21 -24 21 -30 0 -6 -4 -4 -10 4
-11 18 -25 6 -16 -16 3 -9 13 -14 21 -10 8 3 17 1 20 -4 4 -6 1 -10 -5 -10 -8
0 -9 -10 -4 -33 4 -17 9 -48 10 -67 1 -19 5 -45 9 -57 6 -17 3 -23 -9 -23 -12
0 -9 -11 16 -52 92 -150 123 -188 151 -185 17 1 22 -3 22 -20 0 -11 3 -25 8
-29 10 -11 9 -24 -3 -24 -14 0 -34 16 -81 65 -25 26 -39 34 -39 24 0 -8 11
-26 25 -39 14 -13 25 -27 25 -32 0 -4 14 -27 30 -50 19 -25 30 -53 30 -73 0
-34 33 -85 54 -85 8 0 24 -16 37 -34 13 -19 35 -40 49 -46 l25 -12 -24 -19
c-13 -10 -18 -19 -12 -19 6 0 11 -7 11 -15 0 -8 9 -19 20 -25 11 -6 20 -17 20
-24 0 -7 10 -21 21 -32 12 -10 37 -52 56 -92 31 -65 34 -77 23 -100 -22 -48
-111 -180 -126 -186 -8 -3 -14 -10 -14 -16 0 -14 -109 -142 -166 -196 -24 -22
-44 -45 -44 -50 -1 -5 -19 -27 -40 -49 -22 -22 -40 -45 -40 -52 0 -7 -29 -42
-65 -77 -36 -35 -65 -72 -65 -81 0 -21 -33 -50 -82 -73 -21 -9 -38 -22 -38
-29 0 -7 -7 -13 -15 -13 -9 0 -27 -11 -41 -25 -14 -14 -31 -25 -39 -25 -8 0
-29 -15 -48 -33 -18 -17 -50 -41 -70 -51 -20 -11 -37 -23 -37 -28 0 -4 -7 -8
-15 -8 -8 0 -15 -3 -15 -8 0 -4 -24 -18 -52 -31 -29 -13 -60 -29 -68 -36 -8
-6 -40 -22 -70 -34 -29 -13 -71 -34 -92 -47 -21 -13 -43 -24 -50 -24 -17 0
-146 -48 -183 -67 -16 -9 -43 -18 -60 -19 -31 -2 -53 -8 -170 -44 -38 -12 -81
-24 -95 -26 -14 -3 -34 -9 -45 -14 -11 -4 -40 -14 -65 -21 -25 -7 -52 -18 -60
-25 -9 -7 -36 -14 -60 -16 -38 -3 -45 0 -48 17 -2 11 -8 22 -12 25 -11 8 10
191 26 221 8 16 14 39 14 53 0 36 88 98 154 107 78 11 149 28 173 40 21 11 95
116 120 169 6 14 28 70 49 125 36 94 95 195 115 195 5 0 15 13 24 30 9 16 23
30 32 30 9 0 33 18 54 40 21 22 42 40 48 40 13 0 150 132 166 161 8 13 19 34
24 46 5 11 14 24 19 27 23 14 89 182 77 194 -8 8 -33 -25 -49 -62 -9 -21 -22
-36 -32 -36 -9 0 -28 -12 -41 -26 -23 -25 -23 -28 -9 -57 10 -22 12 -37 5 -49
-15 -27 -26 -22 -21 11 8 54 -28 46 -108 -26 -41 -37 -116 -100 -195 -163 -30
-24 -55 -52 -55 -62 0 -10 -6 -18 -14 -18 -18 0 -76 -57 -76 -75 0 -7 -7 -18
-15 -25 -9 -7 -15 -23 -13 -34 2 -12 -5 -29 -14 -38 -9 -9 -22 -36 -28 -60 -7
-24 -15 -47 -20 -53 -13 -17 -23 -108 -11 -100 6 3 11 -1 11 -9 0 -10 -9 -16
-21 -16 -19 0 -21 -4 -15 -30 5 -27 3 -30 -19 -30 -15 0 -25 -6 -25 -15 0 -11
-7 -13 -29 -9 -19 4 -30 1 -34 -9 -3 -8 -26 -17 -54 -21 -86 -13 -180 -52
-220 -91 -26 -25 -42 -85 -24 -85 19 0 12 -16 -14 -30 -14 -7 -25 -19 -25 -27
0 -7 -3 -13 -7 -13 -11 1 -68 92 -69 110 -2 26 -35 81 -46 78 -20 -7 -34 -38
-22 -46 6 -4 16 -17 23 -29 6 -13 18 -23 26 -23 14 0 20 -18 15 -50 -1 -8 10
-24 26 -36 25 -20 27 -29 30 -95 1 -41 7 -75 13 -77 7 -2 6 -10 -2 -22 -9 -16
-8 -22 4 -32 34 -27 23 -87 -13 -73 -7 3 -36 1 -63 -5 -152 -32 -523 -42 -725
-20 -165 17 -433 50 -495 60 -33 5 -107 12 -165 16 -58 3 -109 9 -115 12 -5 3
-29 7 -53 9 -25 1 -58 7 -76 12 -17 5 -58 13 -91 16 -33 4 -85 19 -115 33 -36
17 -83 28 -135 33 -168 16 -325 50 -325 70 0 5 -11 14 -25 19 -32 12 -83 83
-91 127 -5 24 -1 45 12 71 25 50 24 48 33 33 6 -8 14 -10 22 -5 8 4 31 9 52
10 21 1 44 7 52 14 8 7 26 9 44 5 16 -3 32 -2 35 4 4 6 26 8 54 5 l47 -5 -24
21 c-13 11 -21 24 -17 27 4 4 10 3 14 -3 8 -12 51 -38 67 -40 6 -1 12 -3 15
-4 14 -5 409 -9 433 -4 47 10 24 29 -44 37 -82 10 -176 23 -259 37 -55 10
-197 20 -305 23 -53 2 -169 -13 -220 -28 -104 -31 -154 -120 -94 -166 l24 -19
-24 0 c-16 0 -21 -4 -17 -15 8 -21 2 -19 -52 19 -52 38 -216 98 -327 121 -38
8 -90 19 -115 24 -77 16 -265 -16 -310 -54 -8 -6 -23 -15 -33 -18 -10 -4 -17
-13 -15 -19 3 -7 -3 -19 -13 -28 -9 -8 -20 -26 -24 -39 -7 -23 -6 -23 30 -17
21 4 49 15 62 23 16 11 51 16 111 18 48 1 95 5 105 9 9 5 27 6 40 3 116 -28
195 -50 213 -58 11 -6 31 -12 45 -13 13 -2 33 -7 44 -13 11 -6 40 -14 64 -18
50 -8 123 -41 201 -90 30 -19 63 -35 72 -35 9 0 20 -9 23 -20 3 -11 12 -20 19
-20 8 0 19 -7 26 -15 6 -8 38 -20 71 -26 32 -6 59 -15 59 -19 0 -21 75 -50
175 -69 61 -12 130 -27 155 -35 25 -7 68 -11 96 -9 32 2 61 -2 80 -12 16 -8
44 -15 62 -15 18 0 44 -7 57 -16 15 -10 37 -14 55 -12 20 3 30 0 30 -8 0 -16
44 -25 115 -25 42 0 55 -4 55 -15 0 -8 -8 -17 -17 -21 -24 -9 -83 -65 -83 -80
0 -6 6 -14 13 -16 6 -3 2 -6 -9 -6 -23 -1 -40 -26 -24 -36 11 -7 -41 -55 -58
-55 -16 0 -25 -31 -28 -99 -4 -88 8 -107 34 -54 23 44 83 95 122 103 18 4 26
12 28 33 2 16 11 31 20 33 26 9 65 25 82 35 8 5 22 12 30 15 8 4 44 20 80 37
57 26 78 31 169 34 59 2 109 -1 115 -7 11 -8 124 -19 246 -24 19 0 40 -4 45
-7 9 -6 109 -4 310 6 138 6 245 25 252 42 3 9 27 13 69 13 40 0 64 4 64 11 0
6 9 9 19 6 29 -7 228 40 254 61 7 5 22 12 35 15 27 6 31 -19 5 -28 -23 -7 -88
-68 -96 -89 -4 -9 -13 -16 -22 -16 -8 0 -15 -5 -15 -10 0 -6 -8 -14 -17 -17
-10 -4 -28 -16 -40 -27 -12 -12 -35 -31 -52 -44 -17 -13 -31 -30 -31 -38 0 -8
-5 -14 -11 -14 -6 0 -25 -12 -41 -26 -21 -17 -34 -22 -41 -15 -17 17 -36 81
-26 87 5 3 9 13 9 23 0 10 7 24 15 31 17 14 20 30 5 30 -15 0 -80 -61 -80 -75
0 -7 -7 -18 -15 -25 -18 -15 -20 -56 -2 -67 6 -4 29 -29 49 -55 33 -40 42 -46
70 -43 18 1 50 10 70 19 21 9 46 16 56 16 33 0 122 72 268 217 79 78 144 146
144 150 0 5 27 36 59 71 56 58 62 62 106 62 31 0 47 5 51 15 4 8 17 15 29 15
13 0 26 4 30 9 3 5 20 13 38 16 17 4 53 20 80 36 26 16 52 29 58 29 6 0 28 13
48 29 20 15 46 31 59 35 12 4 22 12 22 17 0 5 7 9 16 9 19 0 54 24 109 74 21
20 45 36 53 36 13 0 95 60 117 85 6 7 24 19 40 28 17 8 37 27 45 42 11 21 65
55 86 55 3 0 -26 -70 -47 -115 -8 -18 -18 -58 -36 -148 -3 -15 0 -34 7 -42 10
-11 9 -18 -4 -30 -11 -12 -17 -37 -18 -86 -1 -38 -2 -77 -2 -86 -1 -9 4 -18
11 -20 12 -4 61 82 69 120 2 11 10 27 18 36 19 21 91 177 123 266 13 39 31 84
39 102 8 17 14 38 14 47 0 8 9 30 20 48 11 18 20 40 20 49 0 9 9 28 20 42 26
32 25 43 -2 52 -15 4 -19 8 -10 12 8 3 19 0 25 -6 16 -16 44 -14 51 4 3 8 11
15 19 15 7 0 31 24 52 52 22 29 58 72 79 96 32 35 91 119 152 219 9 14 14 16
26 6 8 -7 17 -11 19 -9 2 3 4 -10 4 -27 0 -26 5 -33 23 -35 12 -2 22 -8 22
-13 0 -6 -4 -7 -10 -4 -5 3 -10 2 -10 -3 0 -6 6 -12 13 -15 13 -5 15 -106 2
-126 -3 -6 -1 -11 5 -11 6 0 9 -8 6 -17 -3 -11 4 -30 19 -48 34 -42 48 -21 40
65 l-6 65 38 -41 c52 -56 101 -66 149 -29 19 14 34 30 34 36 0 5 10 19 22 31
15 15 23 38 26 75 5 57 -4 65 -33 33 -10 -11 -24 -20 -31 -20 -7 0 -17 -7 -22
-15 -4 -9 -24 -18 -43 -21 -31 -5 -39 -2 -67 30 -17 20 -34 46 -36 59 -2 12
-9 44 -14 72 -7 33 -7 56 0 68 5 11 8 33 5 51 -7 47 21 171 80 346 44 131 62
181 83 224 19 38 62 190 80 281 11 55 35 142 55 195 9 25 25 77 35 115 10 39
24 85 30 103 l12 32 28 -27 c111 -107 122 -120 110 -128 -8 -5 -6 -13 9 -29
20 -21 26 -62 22 -148 -1 -39 -19 -35 -23 5 l-3 32 -62 -63 c-44 -44 -66 -76
-74 -105 -20 -70 -8 -117 30 -117 25 0 91 -68 91 -95 0 -8 7 -15 15 -15 8 0
15 -4 15 -10 0 -14 26 -13 53 3 32 18 87 69 87 81 0 6 11 34 25 61 13 28 25
60 25 73 0 32 15 27 56 -18 20 -22 42 -40 49 -40 7 0 15 -10 18 -21 4 -16 11
-20 26 -16 14 3 19 1 14 -6 -4 -6 0 -8 10 -4 11 4 17 1 17 -8 0 -25 17 -17 30
15 8 20 10 38 4 49 -8 17 -93 91 -133 116 -8 6 -22 18 -29 28 -8 10 -22 25
-32 35 -10 9 -21 37 -25 61 -16 98 -79 185 -157 218 -15 7 -33 23 -40 38 -6
14 -15 25 -19 25 -12 0 -79 105 -79 123 0 9 -5 19 -11 23 -8 4 -9 25 -4 63 4
31 8 67 9 81 2 14 7 36 13 50 6 14 8 31 5 38 -2 7 0 23 6 35 16 31 44 176 36
188 -3 5 -1 16 5 23 6 7 13 47 16 87 2 41 11 114 19 162 9 49 18 134 22 190 3
56 8 104 10 107 3 2 21 -15 41 -38 62 -75 116 -89 182 -48 47 30 110 102 118
136 3 14 18 50 33 80 58 116 47 236 -25 277 -21 12 -43 30 -49 41 -21 38 -76
74 -120 79 -47 6 -86 -9 -86 -32 0 -8 -4 -15 -10 -15 -5 0 -10 -9 -10 -20 0
-11 4 -20 8 -20 5 0 15 -18 22 -40 15 -46 40 -73 48 -52 6 18 54 62 67 61 5 0
25 -18 43 -39 l33 -39 -30 -53 c-17 -29 -42 -75 -56 -103 -30 -60 -99 -139
-117 -133 -20 7 -66 78 -78 120 -6 20 -8 60 -5 89 21 217 -2 784 -46 1083 -5
38 -8 70 -6 72 2 2 18 -1 36 -6 28 -8 38 -6 65 15 31 24 76 107 91 170 12 47
13 165 2 219 -12 61 -49 99 -90 93 -15 -2 -30 0 -33 5 -10 15 -32 8 -37 -12
-7 -26 17 -50 50 -50 24 0 25 -2 18 -37 -3 -21 -14 -49 -22 -63 -9 -13 -18
-33 -19 -45 -8 -57 -52 -155 -69 -155 -16 0 -35 44 -35 79 0 15 -3 31 -7 35
-5 4 -13 35 -19 69 -6 34 -16 76 -22 92 -6 17 -21 64 -32 105 -19 65 -43 124
-96 233 -8 16 -14 35 -14 44 0 8 -13 33 -29 56 -15 23 -34 59 -40 80 -7 20
-21 42 -32 47 -10 6 -19 18 -20 28 0 9 -9 31 -20 47 -10 17 -26 45 -34 63 -8
17 -22 32 -30 32 -9 0 -24 15 -36 33 -16 25 -18 41 -13 77 3 25 8 60 10 79 12
92 123 281 166 281 8 0 22 -22 32 -52 10 -29 24 -62 31 -73 6 -11 11 -33 11
-50 -1 -28 -4 -30 -44 -33 -24 -2 -49 2 -57 8 -24 20 -27 -9 -4 -46 23 -38 57
-56 102 -56 20 1 27 -4 27 -19 0 -10 6 -19 13 -19 6 0 22 -11 35 -25 46 -49
121 -105 126 -96 3 5 -5 16 -19 25 -13 9 -44 42 -67 74 l-42 57 -2 105 c-1
145 -24 208 -108 303 -20 21 -82 23 -123 2 -49 -24 -122 -127 -149 -208 -13
-40 -31 -84 -39 -99 -8 -14 -15 -35 -15 -46 0 -12 -5 -24 -11 -28 -6 -3 -9
-18 -6 -33 6 -26 5 -26 -65 -28 -41 -1 -87 4 -111 12 -23 8 -50 15 -59 15 -10
0 -32 6 -50 14 -18 8 -94 28 -168 45 -74 18 -169 40 -210 51 -41 10 -93 21
-115 25 -22 3 -60 12 -85 20 -25 8 -76 16 -115 19 -38 2 -90 9 -115 14 -80 18
-256 30 -330 22 -14 -2 -43 -2 -65 -1 -73 4 -220 -6 -248 -18 -16 -6 -40 -11
-55 -11 -15 0 -35 -7 -45 -15 -11 -7 -38 -17 -60 -20 -23 -4 -59 -18 -79 -31
-21 -13 -42 -24 -47 -24 -5 0 -14 -7 -21 -15 -14 -16 -21 -16 -129 5 -30 5
-78 8 -105 4 -63 -7 -153 -41 -160 -60 -3 -8 -12 -14 -21 -14 -24 0 -73 -77
-84 -133 -21 -113 -27 -181 -19 -240 4 -34 10 -88 13 -120 5 -61 65 -191 95
-207 14 -7 26 -35 46 -107 2 -7 10 -10 19 -7 21 8 82 -35 95 -66 5 -14 14 -32
19 -40 5 -8 17 -33 27 -55 11 -22 22 -42 25 -45 4 -3 10 -25 14 -50 7 -45 14
-74 34 -141 6 -20 14 -61 17 -90 3 -30 10 -58 15 -64 5 -5 9 -22 9 -38 0 -26
3 -29 25 -23 33 8 32 -2 -1 -14 -23 -9 -25 -14 -18 -38 4 -15 8 -38 8 -52 1
-14 5 -31 9 -37 4 -7 10 -52 13 -100 3 -64 9 -91 20 -100 10 -7 11 -13 5 -18
-16 -9 -13 -45 3 -51 11 -4 13 -12 6 -30 -7 -19 -6 -24 5 -24 17 0 19 -11 6
-25 -5 -6 -6 -28 -2 -50 5 -29 11 -40 24 -39 9 1 17 -2 17 -7 0 -5 -7 -9 -15
-9 -20 0 -19 -17 3 -29 14 -9 14 -12 4 -19 -11 -8 -11 -10 2 -15 9 -4 16 -17
15 -29 0 -13 -3 -17 -6 -10 -13 33 -22 5 -17 -58 3 -41 1 -70 -5 -70 -5 0 -18
-15 -29 -34 -28 -47 -62 -51 -110 -14 -44 35 -301 276 -354 333 -39 41 -48 65
-24 65 7 0 19 6 25 14 10 11 3 23 -34 57 -56 52 -69 95 -63 209 4 73 9 91 33
128 30 44 62 53 58 17 -1 -10 9 -29 23 -42 13 -12 23 -26 22 -30 -4 -17 15
-99 28 -118 8 -11 14 -27 14 -37 0 -21 16 -24 23 -4 7 18 -4 95 -14 102 -5 3
-9 16 -9 28 0 13 -7 40 -16 61 -14 36 -14 38 5 52 39 27 25 78 -42 150 -27 29
-33 31 -83 27 -135 -10 -194 -92 -192 -267 0 -67 4 -83 24 -106 13 -16 21 -31
18 -34 -3 -3 4 -31 15 -63 12 -31 20 -63 17 -70 -2 -7 4 -20 15 -30 10 -9 19
-25 19 -34 0 -9 9 -25 20 -35 11 -10 20 -22 20 -28 0 -5 14 -26 30 -47 17 -21
30 -42 30 -47 0 -21 360 -373 382 -373 5 0 22 -8 36 -19 31 -22 121 -50 139
-44 7 3 16 -2 19 -11 3 -9 12 -16 20 -16 8 0 14 -9 14 -20 0 -11 -7 -20 -15
-20 -10 0 -15 -10 -15 -31 0 -26 3 -29 20 -24 11 4 20 2 20 -4 0 -6 -7 -11
-14 -11 -14 0 -18 -30 -15 -105 1 -11 2 -68 3 -127 0 -60 4 -108 8 -108 3 0 4
-18 1 -41 -4 -24 -1 -50 7 -65 12 -21 11 -26 -4 -37 -29 -21 -24 -95 7 -121
33 -28 27 -67 -14 -85 -16 -7 -29 -20 -29 -30 0 -41 -56 -56 -87 -23 -19 21
-33 37 -76 95 -17 22 -37 37 -50 38 -12 0 -16 3 -9 6 17 7 15 34 -4 61 -14 21
-14 25 -1 35 9 7 17 26 19 42 3 34 21 37 26 5 3 -20 58 -79 73 -80 32 -1 1 94
-52 160 -24 30 -40 40 -61 40 -57 0 -87 -37 -56 -68 9 -9 9 -15 0 -24 -17 -17
-15 -31 3 -24 8 3 15 1 15 -3 0 -5 -6 -11 -12 -13 -14 -5 -12 -76 3 -94 5 -6
11 -24 13 -40 5 -42 16 -64 32 -64 8 0 14 -8 14 -17 1 -10 15 -27 33 -38 18
-11 33 -29 35 -40 4 -23 89 -95 112 -95 35 1 60 35 67 88 5 47 23 84 23 49 0
-16 28 -43 36 -35 3 3 7 75 9 159 3 85 7 181 10 214 3 33 11 114 17 180 6 66
11 140 12 165 1 25 5 51 9 58 5 7 7 22 6 35 -1 12 1 29 4 37 3 8 8 43 10 78 4
49 2 62 -9 62 -10 0 -8 6 7 21 14 14 19 29 16 45 -2 13 0 21 4 18 5 -3 9 -2
10 3 1 13 6 42 24 158 10 61 19 121 20 135 2 14 8 39 14 55 6 17 24 71 40 120
16 50 33 99 37 109 6 15 4 18 -9 13 -9 -3 -19 -2 -22 3 -4 6 0 10 7 10 21 1
51 28 53 49 1 11 7 26 13 34 7 7 15 28 18 45 6 28 4 32 -15 32 -13 0 -21 -6
-21 -16 0 -9 -8 -18 -18 -21 -19 -4 -33 -31 -53 -100 -8 -27 -19 -43 -32 -47
-17 -4 -18 -8 -8 -20 10 -12 10 -19 0 -38 -7 -13 -12 -33 -10 -46 2 -15 -6
-30 -23 -43 -29 -23 -33 -46 -11 -75 20 -26 19 -44 -3 -44 -24 0 -43 -40 -30
-63 5 -10 6 -27 2 -39 -3 -12 -8 -45 -9 -74 -4 -56 -22 -102 -35 -88 -4 5 -11
43 -14 84 -4 41 -11 104 -16 140 -5 36 -12 137 -15 225 -4 88 -9 174 -11 190
-3 17 -11 77 -18 135 -16 119 -37 215 -60 280 -9 25 -16 52 -16 60 0 8 -7 28
-15 44 -21 39 -20 60 3 51 34 -13 119 -18 126 -6 4 6 18 8 31 5 37 -9 145 73
145 110 0 12 7 29 14 38 17 23 12 119 -8 177 -9 24 -16 53 -16 65 0 39 -65
150 -126 213 -79 82 -130 102 -172 66 -34 -30 -36 -68 -6 -97 22 -20 30 -22
45 -13 13 8 24 8 42 -2 20 -10 30 -31 47 -95 12 -44 26 -92 31 -105 13 -31 8
-35 -76 -55 -67 -17 -72 -17 -119 2 -64 25 -117 79 -139 139 -18 53 -39 201
-32 230 3 10 10 41 16 69 10 46 15 52 47 64 21 7 45 21 54 30 9 10 35 21 57
25 23 4 41 10 41 14 0 5 28 11 62 15 40 4 65 12 71 22 5 9 16 13 28 9 13 -4
19 -2 19 9 0 13 4 13 33 1 31 -13 97 -8 125 9 6 4 20 1 32 -6 15 -10 24 -10
39 -1 13 8 37 9 82 3 66 -9 109 -5 121 13 4 7 12 6 22 -2 9 -8 36 -13 61 -13
25 1 45 -2 46 -6 2 -36 11 -100 16 -112 3 -8 6 -73 8 -145 7 -343 6 -490 -5
-603 -7 -68 -10 -132 -7 -143 3 -11 1 -34 -4 -51 -4 -17 -11 -86 -14 -152 -3
-67 -9 -134 -12 -151 -4 -16 -6 -34 -5 -38 1 -5 -3 -37 -9 -71 -7 -45 -8 -75
0 -101 8 -31 7 -43 -7 -67 -15 -25 -15 -30 -2 -38 10 -7 12 -12 4 -17 -13 -9
-30 -136 -38 -289 -2 -28 -6 -56 -10 -62 -3 -6 -8 -59 -11 -119 -3 -59 -9
-139 -14 -178 -6 -38 -10 -95 -10 -125 1 -54 -8 -196 -18 -275 -2 -22 -6 -60
-8 -85 -4 -49 -11 -126 -21 -235 -4 -38 -8 -90 -9 -115 -1 -25 -5 -60 -9 -78
-9 -38 -28 -232 -27 -281 0 -19 -5 -43 -10 -53 -7 -14 -7 -24 2 -34 8 -10 9
-17 0 -28 -10 -12 -14 -53 -28 -286 -3 -41 -8 -79 -12 -85 -5 -5 -8 -41 -9
-78 0 -37 -6 -74 -12 -82 -7 -8 -14 -47 -16 -87 -7 -137 -15 -223 -23 -243
-21 -53 -30 -89 -25 -97 4 -6 2 -20 -4 -31 -5 -12 -20 -71 -32 -131 -21 -110
-42 -166 -60 -166 -6 0 -10 9 -10 19 0 11 -4 23 -10 26 -5 3 -10 15 -10 27 0
11 -8 32 -19 46 -10 15 -21 45 -24 67 -7 43 -40 120 -57 130 -6 4 -8 15 -5 24
3 10 -4 29 -15 44 -11 14 -20 31 -20 39 0 7 -7 22 -15 32 -8 11 -15 27 -15 37
0 9 -7 22 -15 29 -8 7 -15 22 -15 33 0 11 -7 28 -15 37 -9 10 -17 26 -19 36
-6 27 -28 74 -49 105 -10 15 -20 37 -22 50 -6 31 -95 208 -117 233 -10 11 -18
26 -18 33 0 7 -13 28 -30 46 -16 19 -30 44 -30 56 0 11 -4 21 -9 21 -6 0 -23
26 -38 58 -45 90 -134 256 -144 268 -13 16 -56 93 -75 134 -9 19 -22 39 -30
43 -8 4 -14 17 -14 28 0 10 -9 27 -20 36 -11 10 -20 23 -20 30 0 7 -9 17 -20
23 -11 6 -20 19 -20 30 0 27 -39 90 -56 90 -8 0 -14 8 -14 19 0 10 -7 24 -15
31 -8 7 -15 20 -15 29 0 9 -9 22 -20 29 -11 7 -20 18 -20 26 0 7 -8 20 -19 30
-10 9 -26 34 -36 56 -10 22 -22 40 -27 40 -14 0 -53 51 -53 69 0 10 -12 33
-28 52 -63 79 -87 112 -87 123 0 6 -18 24 -40 39 -31 22 -40 35 -40 57 0 20
-8 35 -25 46 -14 9 -25 22 -25 29 0 8 -11 27 -25 43 -14 17 -25 39 -25 50 0
12 -6 25 -14 29 -7 4 -30 40 -49 78 -20 39 -47 81 -61 94 -13 13 -30 36 -36
52 -7 15 -21 31 -31 34 -10 4 -19 15 -19 25 0 11 -8 27 -19 37 -26 25 -136
165 -150 192 -7 12 -23 26 -37 31 -13 5 -24 17 -24 26 0 9 -18 36 -40 60 -22
24 -45 54 -51 67 -6 12 -28 35 -49 51 -22 16 -43 42 -49 57 -5 15 -19 32 -30
39 -12 6 -21 20 -21 30 0 11 -6 20 -14 20 -8 0 -17 11 -20 25 -3 13 -20 38
-36 55 -17 17 -30 36 -30 44 0 7 -11 23 -25 36 -14 13 -25 28 -25 34 0 6 -9
19 -20 31 -39 39 -90 107 -90 119 0 7 -6 18 -12 24 -7 7 -13 16 -13 20 0 12
-89 142 -97 142 -4 0 -16 20 -27 45 -11 25 -27 48 -35 51 -8 3 -17 16 -20 29
-4 14 -15 29 -26 35 -11 6 -20 20 -20 31 0 11 -11 31 -24 44 -14 13 -30 41
-38 61 -7 20 -21 40 -30 45 -10 5 -18 16 -18 23 0 7 -9 21 -20 31 -11 10 -20
25 -20 33 0 12 -12 30 -60 89 -6 7 -10 16 -10 20 0 7 -31 59 -78 129 -7 10
-21 33 -32 49 -56 86 -58 88 -131 83 -60 -5 -71 -2 -115 24 -27 15 -61 34 -76
40 -46 20 -31 53 27 60 22 2 37 13 55 41 13 21 26 34 28 28 7 -22 28 -9 62 39
22 30 39 45 45 39 17 -17 63 -9 91 15 l28 23 -23 12 c-30 16 -118 16 -138 -1
-15 -12 -16 -9 -9 30 3 24 11 51 16 60 5 9 12 42 15 72 8 79 18 90 50 60 14
-13 28 -20 33 -14 4 5 20 23 35 40 15 17 30 43 33 57 4 24 1 27 -21 27 -14 0
-39 -7 -55 -15 -45 -23 -45 -22 -6 175 l11 55 60 20 c33 11 65 23 70 27 6 3
28 9 50 13 22 4 45 12 52 17 6 5 17 8 25 7 25 -3 77 13 82 27 3 8 14 14 25 14
11 0 23 5 26 10 3 6 22 10 41 10 20 0 43 4 53 9 10 6 53 19 97 31 43 12 87 24
97 27 11 4 17 0 17 -11 0 -15 47 -46 72 -46 7 0 19 9 26 20 7 11 22 20 35 20
13 0 27 4 33 9 13 12 123 21 129 10 4 -5 14 -9 24 -9 10 0 28 -12 42 -26 13
-14 34 -30 47 -35 13 -5 22 -17 22 -29 0 -11 7 -23 15 -26 8 -4 15 -13 15 -21
0 -8 14 -35 30 -60 17 -24 30 -48 30 -53 0 -4 6 -21 14 -37 8 -15 25 -53 36
-83 12 -30 29 -63 37 -72 8 -9 16 -32 18 -50 2 -29 28 -136 43 -178 22 -64 38
-147 40 -210 2 -51 8 -79 18 -86 16 -13 19 -40 4 -49 -13 -8 -13 -45 0 -45 7
0 9 -39 6 -107 -3 -60 -5 -124 -5 -144 -1 -28 -6 -38 -21 -42 -15 -4 -20 -14
-20 -41 0 -20 -4 -36 -8 -36 -12 0 -44 -59 -37 -70 5 -9 -2 -40 -23 -100 -20
-56 -16 -219 5 -227 7 -3 13 -20 13 -37 0 -18 5 -37 11 -43 6 -6 8 -16 4 -23
-4 -7 -27 0 -71 25 -36 19 -71 35 -78 35 -7 0 -21 9 -31 20 -10 11 -22 20 -27
20 -5 0 -6 -9 -3 -20 6 -18 2 -20 -39 -20 -25 0 -47 -4 -50 -9 -9 -14 21 -73
51 -103 27 -25 69 -43 156 -67 46 -12 80 0 96 35 14 31 25 30 45 -1 9 -14 23
-25 31 -25 10 0 15 -10 15 -32 0 -26 11 -42 56 -85 30 -29 59 -53 63 -53 13 0
62 -78 52 -82 -5 -2 -3 -21 5 -43 45 -125 55 -195 34 -234 -6 -12 -5 -22 1
-28 7 -7 7 -13 0 -17 -7 -4 -7 -17 0 -39 6 -17 13 -38 15 -46 12 -37 26 15 28
108 3 74 8 106 19 119 13 15 13 26 0 97 -8 44 -18 84 -23 89 -5 4 -6 23 -3 41
5 29 -1 38 -48 87 -30 29 -66 62 -81 71 -16 10 -28 25 -28 34 0 10 -16 33 -35
53 -40 41 -95 143 -95 176 0 13 -8 28 -17 33 -17 10 -17 10 0 11 14 0 17 10
19 55 1 30 3 67 5 83 1 15 5 50 7 77 2 28 5 52 7 55 1 3 4 16 5 30 10 76 17
108 29 135 23 52 44 118 40 126 -3 4 2 26 10 50 42 118 22 578 -31 722 -8 20
-14 47 -14 58 0 23 -9 44 -87 206 -30 62 -63 118 -74 123 -10 6 -19 20 -19 30
0 11 -6 20 -13 20 -8 0 -20 12 -28 26 -7 15 -23 30 -34 35 -36 16 175 -5 380
-38 133 -21 174 -25 280 -28 50 -2 104 -9 120 -16 17 -6 84 -13 150 -15 66 -2
153 -8 194 -13 40 -5 88 -7 106 -4 18 3 35 1 38 -3 3 -5 88 -8 189 -7 369 4
490 24 610 98 76 47 130 53 166 17 11 -11 46 -26 79 -33 32 -7 61 -17 64 -21
8 -12 138 -48 153 -42 7 3 37 -10 68 -28 85 -52 185 -78 296 -78 98 0 162 26
162 65 0 17 7 25 22 27 24 3 85 86 94 127 3 14 10 35 16 47 5 12 9 30 7 40 -1
10 1 37 5 59 8 44 -7 99 -25 93 -6 -2 -27 -33 -47 -68 -21 -36 -49 -78 -64
-94 -16 -16 -28 -32 -28 -37 0 -4 -24 -22 -52 -39 -29 -17 -60 -35 -68 -40
-71 -42 -132 -37 -370 30 -41 12 -84 22 -95 24 -11 1 -27 5 -35 9 -8 3 -31 8
-50 10 -19 2 -63 11 -97 21 l-62 18 24 33 c14 17 25 35 25 39 0 4 11 22 25 40
14 18 25 38 25 43 0 6 11 30 24 54 34 62 58 171 58 259 -1 161 -103 289 -244
306 -61 7 -147 -15 -149 -39 -3 -36 5 -73 17 -80 8 -4 14 -14 14 -21 0 -16 80
-109 88 -102 2 3 6 22 8 43 2 20 10 43 18 51 22 22 36 -14 43 -112 9 -123 1
-133 -47 -59 -59 90 -115 132 -187 139 -123 13 -191 -62 -180 -197 3 -39 13
-84 21 -101 9 -17 16 -38 16 -47 0 -18 55 -90 62 -81 2 3 16 45 32 94 16 49
41 118 57 153 32 71 42 73 85 15 16 -21 33 -40 40 -45 16 -10 44 -65 44 -88 0
-10 5 -21 10 -24 19 -12 10 -66 -23 -134 -44 -89 -110 -172 -178 -221 -33 -24
-39 -25 -189 -25 -85 0 -198 7 -250 14 -52 7 -108 15 -125 17 -16 2 -52 6 -80
9 -197 23 -289 31 -360 34 l-50 1 75 45 c43 25 88 45 105 45 29 1 81 12 198
44 129 36 178 53 195 67 12 10 30 14 49 12 32 -5 52 12 35 29 -7 7 -17 6 -31
-1 -14 -8 -27 -9 -38 -3 -9 6 -28 6 -42 2 -14 -4 -51 -13 -81 -20 -30 -7 -62
-16 -70 -20 -8 -4 -44 -14 -80 -23 -36 -8 -74 -19 -85 -23 -12 -4 1 15 31 47
28 31 59 69 68 86 8 17 19 33 23 35 14 5 62 111 68 150 4 20 4 42 0 48 -4 6
-44 -25 -101 -79 -52 -50 -108 -98 -125 -107 -23 -11 -30 -21 -26 -35 4 -15 0
-19 -19 -19 -13 0 -70 -31 -126 -69 -217 -144 -245 -153 -477 -152 -101 1
-187 3 -192 6 -9 6 -246 15 -404 15 -153 0 -241 -9 -345 -35 -82 -20 -116 -23
-247 -22 -83 1 -155 5 -159 9 -4 5 0 16 9 26 10 10 17 24 17 30 0 7 4 12 9 12
18 0 147 245 176 335 10 33 26 68 34 78 8 10 16 26 17 35 2 9 8 18 13 20 6 2
18 19 27 38 9 19 23 34 32 34 8 0 31 12 51 27 19 15 82 51 139 80 58 29 110
56 116 61 6 5 27 15 46 22 19 8 55 26 80 40 88 51 248 114 355 140 27 6 56 17
63 23 22 18 139 17 155 -2 19 -22 19 -88 1 -95 -8 -3 -14 -12 -14 -20 0 -25
-68 -124 -89 -131 -11 -3 -36 -19 -57 -36 -20 -16 -54 -32 -76 -35 -25 -5 -38
-12 -39 -23 0 -9 -3 -11 -5 -4 -9 21 36 99 91 157 49 51 65 76 50 76 -18 0
-84 -34 -89 -46 -3 -8 -11 -14 -19 -14 -17 0 -87 -62 -87 -77 0 -6 -7 -13 -15
-17 -27 -10 -18 -62 18 -95 39 -38 106 -44 134 -12 9 11 21 17 28 15 19 -8
116 54 158 100 52 55 90 138 89 192 -1 90 -16 103 -127 117 -22 2 -52 2 -67 0z
m-1554 -1395 c-7 -12 -38 -48 -76 -89 -31 -33 -50 -68 -43 -79 4 -6 0 -19 -8
-28 -20 -23 -37 -78 -37 -118 0 -39 -31 -64 -56 -43 -11 9 -14 9 -14 0 0 -21
20 -51 34 -51 16 0 29 -41 20 -64 -8 -20 -18 -20 -34 -1 -16 19 -26 10 -35
-32 -6 -29 -4 -34 19 -43 30 -11 33 -32 11 -82 -10 -26 -22 -37 -44 -41 -17
-4 -48 -22 -69 -42 -22 -19 -45 -35 -51 -35 -7 0 -22 -10 -34 -22 -13 -13 -36
-29 -51 -36 -16 -7 -26 -18 -23 -26 3 -7 2 -19 -3 -26 -6 -9 -11 -7 -19 9 -15
27 -24 27 -36 -1 -8 -20 -18 -23 -60 -23 -39 0 -50 -4 -53 -17 -2 -10 1 -18 7
-18 18 0 13 -14 -16 -48 -16 -17 -36 -40 -45 -51 -21 -25 -53 -27 -75 -6 -16
17 -33 12 -33 -11 0 -17 -26 -19 -36 -3 -4 7 2 19 13 28 11 9 34 39 51 67 32
50 33 51 105 64 92 16 96 18 90 39 -2 10 3 35 11 56 9 20 16 46 16 57 0 10 9
36 20 58 11 22 20 51 20 66 l0 27 -26 -24 c-14 -13 -33 -37 -41 -54 -9 -16
-33 -52 -54 -79 -22 -27 -39 -55 -39 -62 0 -8 -7 -14 -15 -14 -20 0 -20 0 25
92 25 51 40 96 40 119 0 21 5 39 11 41 21 7 48 283 35 353 -7 36 -31 49 -32
18 -1 -10 -4 -49 -9 -88 -4 -38 -8 -99 -9 -135 -1 -39 -8 -79 -19 -99 -9 -19
-17 -42 -17 -51 0 -10 -7 -23 -15 -30 -8 -7 -12 -16 -9 -21 3 -5 1 -9 -4 -9
-6 0 -13 32 -17 70 -4 39 -11 72 -16 75 -11 8 -27 -25 -27 -55 0 -23 -10 -163
-16 -217 -1 -11 -11 -34 -21 -50 -11 -15 -18 -36 -17 -45 2 -9 -7 -22 -20 -29
-24 -13 -56 -49 -73 -83 -12 -24 -97 -48 -138 -40 -27 6 -29 5 -25 -28 3 -31
1 -33 -32 -36 -29 -3 -39 2 -62 28 -22 27 -31 32 -55 26 -41 -10 -46 -10 -76
-2 -32 8 -47 -15 -29 -45 18 -28 -5 -34 -28 -7 -11 13 -19 26 -20 30 0 4 -13
5 -29 2 -30 -6 -150 31 -163 50 -12 17 -10 21 38 75 25 28 43 55 40 60 -3 5
14 24 39 42 24 19 47 41 50 51 3 9 17 23 30 32 14 9 25 23 25 31 0 8 15 28 34
46 19 17 37 41 40 54 6 25 89 95 112 95 7 0 15 9 19 19 3 11 21 26 40 35 19 9
39 26 45 36 6 11 18 20 28 20 22 0 67 29 121 79 25 23 50 41 58 41 7 0 21 4
31 9 9 5 48 24 86 41 44 20 70 39 74 52 4 17 10 19 48 13 28 -4 44 -2 44 4 0
6 7 8 16 4 13 -5 66 12 116 38 10 5 26 9 36 9 10 0 24 6 31 13 6 6 26 13 44
13 46 2 160 25 173 35 5 5 26 6 45 3 22 -4 41 0 54 10 25 19 70 22 59 4z
m-282 -838 c18 -11 39 -20 47 -20 8 0 32 -8 53 -17 34 -15 38 -20 33 -43 -4
-14 -8 -31 -9 -39 -2 -7 -12 -21 -23 -30 -23 -18 -63 -92 -63 -116 0 -23 -28
-74 -66 -121 -19 -23 -34 -45 -34 -51 0 -5 -13 -27 -29 -49 -28 -37 -65 -100
-138 -234 -17 -30 -45 -89 -63 -130 -18 -41 -43 -91 -54 -110 -12 -19 -30 -55
-40 -80 -10 -25 -27 -67 -38 -95 -11 -27 -27 -66 -36 -85 -8 -19 -18 -51 -23
-70 -4 -19 -23 -78 -42 -131 -18 -53 -34 -115 -35 -138 -1 -22 -6 -49 -11 -59
-12 -24 -41 -145 -41 -172 0 -19 -2 -20 -15 -10 -8 7 -15 18 -15 24 0 14 -40
146 -51 168 -16 32 -11 57 11 51 19 -5 20 -1 19 65 -2 98 20 282 37 314 32 61
2 81 -37 24 -13 -19 -26 -33 -30 -30 -12 7 4 59 28 92 26 35 60 40 55 8 -3
-17 0 -16 29 4 30 22 31 24 13 37 -10 7 -37 13 -59 13 -71 0 -88 -36 -85 -185
1 -38 -6 -110 -15 -159 -14 -85 -25 -119 -25 -82 0 9 -9 34 -20 54 -10 20 -34
68 -51 105 -18 37 -36 70 -41 73 -4 3 -8 12 -8 21 0 9 -11 31 -25 49 -14 18
-25 38 -25 45 0 7 -8 21 -17 32 -13 15 -15 21 -5 24 6 3 12 12 12 22 0 9 5 22
12 29 9 9 9 12 1 12 -18 0 -25 37 -12 62 6 13 34 53 60 90 52 72 58 88 34 88
-8 0 -15 5 -15 10 0 17 -24 11 -89 -20 -69 -34 -88 -33 -130 6 -36 33 -56 27
-56 -16 0 -29 -4 -35 -21 -35 -11 0 -28 -8 -38 -17 -10 -10 -24 -18 -32 -18
-17 0 -18 -12 -3 -27 7 -7 5 -22 -7 -49 -10 -22 -19 -57 -21 -79 -2 -23 -13
-50 -25 -63 -22 -22 -22 -23 -2 -42 19 -20 21 -20 39 -2 82 74 221 85 245 19
6 -18 20 -49 31 -69 10 -20 19 -48 19 -62 0 -14 8 -29 17 -35 29 -16 10 -21
-36 -9 -35 9 -46 17 -57 45 -15 34 -28 41 -39 22 -4 -6 3 -21 15 -34 l22 -24
-41 -11 c-23 -6 -41 -17 -41 -25 0 -7 -11 -15 -24 -17 -22 -3 -23 -5 -11 -21
22 -30 89 -34 141 -8 43 22 45 22 74 4 21 -12 30 -25 30 -44 0 -15 7 -32 15
-39 8 -7 15 -25 15 -39 0 -44 30 -124 55 -147 16 -15 20 -25 13 -32 -14 -14
21 -94 39 -88 15 6 17 -22 4 -43 -9 -14 -14 -13 -96 8 -22 6 -57 11 -78 11
-21 0 -50 8 -65 17 -52 34 -141 104 -169 133 -46 49 -56 41 -51 -43 5 -80 18
-106 83 -173 34 -35 48 -42 92 -47 29 -3 55 -2 57 2 3 5 22 11 42 14 20 4 47
16 60 28 23 21 25 22 44 4 10 -9 25 -15 32 -13 26 10 57 -12 94 -68 21 -31 39
-67 40 -81 2 -13 7 -30 13 -37 7 -8 7 -36 0 -87 -15 -114 -17 -136 -23 -254
-3 -60 -8 -139 -11 -175 -8 -104 -17 -273 -14 -300 3 -33 2 -59 -1 -155 -2
-44 0 -147 4 -230 4 -82 10 -195 12 -250 4 -119 12 -217 20 -265 3 -19 8 -51
10 -70 28 -261 62 -489 76 -507 6 -7 7 -16 4 -22 -3 -5 1 -36 10 -68 9 -32 23
-92 30 -133 8 -41 21 -97 29 -123 9 -26 13 -52 9 -58 -3 -5 1 -21 10 -34 9
-13 16 -33 16 -43 0 -10 6 -24 13 -31 6 -6 13 -24 13 -39 1 -15 5 -37 9 -50 7
-21 5 -22 -19 -16 -16 4 -26 2 -26 -5 0 -14 -85 -3 -122 16 -35 17 -36 33 -4
33 32 0 63 29 44 41 -19 13 -24 11 -57 -16 l-30 -26 -20 22 c-27 29 -39 17
-17 -17 23 -34 15 -39 -25 -19 -23 12 -45 16 -75 11 -36 -5 -45 -2 -54 14 -5
10 -10 26 -10 36 0 9 -10 31 -23 48 -13 17 -31 57 -42 88 -15 46 -16 59 -6 72
9 10 14 56 16 133 3 116 5 135 26 263 14 84 20 127 22 167 2 18 8 38 15 45 7
7 12 18 12 26 0 12 -2 12 -17 1 -15 -13 -16 -11 -9 11 4 14 12 54 17 90 6 36
16 70 21 77 12 14 1 73 -13 73 -29 0 -49 -22 -49 -56 0 -21 -6 -37 -15 -40 -8
-3 -17 -15 -21 -26 -11 -35 -17 -10 -16 60 1 50 -1 61 -8 44 -14 -33 -38 -182
-33 -202 3 -10 0 -21 -6 -24 -6 -4 -11 -25 -11 -47 0 -22 -5 -49 -10 -59 -7
-13 -7 -28 0 -46 6 -14 7 -32 2 -38 -10 -14 -8 -168 3 -185 4 -7 2 -18 -4 -24
-7 -7 -12 -6 -15 4 -8 26 -25 114 -32 164 -3 28 -12 73 -19 102 -17 66 -30
228 -15 196 12 -29 27 -29 36 0 4 12 10 24 15 27 5 3 11 28 13 55 11 118 26
266 35 340 5 44 12 114 16 155 3 41 12 108 21 148 8 40 12 77 10 81 -4 5 10
225 23 381 12 134 12 170 2 170 -15 0 -21 -15 -42 -119 -16 -78 -17 -82 -18
-39 -1 26 -6 50 -12 53 -6 4 -8 14 -5 21 3 8 1 72 -5 142 -6 70 -12 140 -13
157 -1 19 -8 31 -19 33 -14 3 -17 -5 -19 -45 -2 -78 -5 -99 -12 -112 -4 -7 -2
-19 5 -27 9 -11 9 -24 2 -52 -13 -48 -11 -128 4 -143 8 -8 8 -18 1 -34 -7 -17
-6 -30 6 -52 8 -17 13 -33 9 -36 -3 -3 4 -21 16 -40 21 -34 21 -36 5 -103 -20
-85 -24 -105 -33 -174 -3 -30 -10 -60 -14 -67 -4 -7 -2 -21 5 -33 10 -16 10
-24 0 -41 -7 -11 -15 -55 -18 -97 -3 -42 -8 -80 -10 -84 -11 -18 -14 -127 -4
-133 8 -5 6 -13 -5 -25 -9 -10 -14 -24 -10 -30 4 -6 1 -24 -5 -41 -9 -22 -10
-32 -1 -43 9 -10 8 -21 0 -42 l-12 -29 -9 40 c-5 22 -13 69 -17 105 -5 36 -14
92 -20 126 -16 88 -23 202 -25 429 -1 110 -4 205 -8 210 -4 8 -3 60 2 60 1 0
10 211 14 356 1 69 6 130 9 136 10 15 -20 50 -32 38 -12 -12 -16 -78 -7 -117
4 -18 0 -39 -13 -62 -11 -19 -17 -43 -14 -54 3 -12 -2 -35 -11 -52 -14 -29
-14 -34 0 -56 11 -16 14 -32 9 -51 -19 -68 -24 -223 -8 -253 8 -15 11 -37 7
-55 -8 -37 -15 -112 -17 -193 -2 -63 -10 -80 -20 -39 -8 32 -94 283 -106 304
-12 24 -77 232 -101 326 -12 45 -25 65 -36 54 -3 -3 2 -43 10 -89 9 -47 16
-103 16 -125 0 -23 5 -43 10 -45 6 -2 12 -30 14 -63 2 -33 10 -78 19 -100 9
-22 21 -60 27 -85 7 -25 19 -53 27 -62 9 -10 12 -18 6 -18 -6 0 -19 11 -29 25
-10 14 -24 25 -31 25 -6 0 -13 6 -16 13 -2 6 -8 9 -12 4 -5 -4 -1 -13 7 -20
25 -19 106 -142 113 -170 4 -15 13 -31 21 -38 8 -6 14 -21 14 -33 0 -11 7 -30
15 -40 8 -11 15 -26 15 -35 0 -8 7 -22 15 -31 17 -19 33 -89 40 -170 3 -30 8
-71 12 -90 12 -64 10 -94 -9 -110 -17 -14 -17 -17 7 -65 13 -27 25 -62 25 -77
0 -15 6 -47 14 -70 7 -24 13 -52 14 -63 0 -11 3 -62 6 -113 4 -61 3 -91 -4
-87 -5 3 -10 16 -10 28 0 12 -6 33 -13 47 -52 97 -82 149 -101 175 -11 16 -27
41 -34 55 -16 30 -70 105 -97 134 -11 12 -36 42 -55 67 -19 24 -50 62 -69 85
-20 22 -55 62 -78 89 -23 27 -46 46 -50 41 -4 -4 2 -16 15 -26 12 -10 22 -24
22 -30 0 -7 15 -30 34 -52 19 -22 42 -56 51 -75 9 -19 23 -37 31 -40 8 -3 11
-10 8 -15 -9 -14 15 -56 36 -61 9 -2 20 -18 23 -36 6 -31 71 -141 102 -172 8
-9 15 -19 15 -23 0 -5 13 -25 28 -45 16 -20 34 -50 41 -68 7 -17 18 -34 25
-36 11 -4 43 -64 80 -147 16 -38 17 -45 17 -172 0 -49 3 -88 7 -88 4 0 7 -39
7 -88 -1 -48 3 -93 8 -100 9 -11 6 -28 -20 -126 -4 -14 -11 -17 -35 -12 -30 6
-31 5 -25 -29 6 -39 -5 -46 -61 -41 -43 4 -58 19 -37 36 18 15 20 54 3 68 -7
5 -28 7 -46 5 -31 -5 -33 -8 -27 -32 4 -14 9 -43 10 -64 2 -29 -1 -37 -13 -35
-16 3 -27 19 -42 61 -7 19 -16 27 -34 27 -14 0 -28 -4 -31 -10 -3 -6 -12 -10
-18 -10 -16 0 -99 157 -125 235 -12 33 -30 85 -41 115 -12 30 -21 61 -21 68 0
8 -6 28 -14 45 -16 37 -37 99 -60 177 -9 30 -20 64 -25 75 -12 29 -31 102 -42
163 -5 29 -16 72 -24 97 -9 24 -20 79 -25 122 -6 43 -15 105 -21 138 -5 33
-12 78 -14 100 -5 49 -23 195 -32 250 -6 43 -7 52 -18 160 -3 38 -8 72 -10 75
-2 4 -6 47 -9 96 -22 394 -26 494 -27 679 -2 283 1 384 12 390 5 4 9 28 9 56
0 42 5 54 35 88 19 21 35 47 35 58 0 19 7 21 81 21 85 0 80 3 134 -60 8 -10
15 -24 15 -32 0 -7 7 -19 15 -26 21 -17 19 -30 -5 -30 -38 0 -74 -140 -37
-148 13 -3 17 3 17 27 0 17 4 31 10 31 5 0 7 6 5 13 -3 6 0 19 5 27 9 13 12
12 25 -4 8 -11 15 -28 15 -38 0 -10 9 -26 19 -35 11 -9 18 -21 15 -25 -7 -12
16 -68 27 -68 5 0 9 -10 9 -23 0 -13 9 -33 21 -46 12 -12 18 -25 15 -28 -5 -5
44 -104 65 -129 7 -8 2 -14 -16 -18 -26 -7 -35 -36 -11 -36 22 0 28 -17 16
-40 -8 -15 -17 -19 -35 -14 -19 5 -25 2 -25 -10 0 -16 33 -39 43 -29 3 3 14
-11 23 -31 18 -37 28 -44 39 -26 9 14 45 -11 45 -32 0 -10 6 -18 14 -18 8 0
19 -14 25 -31 6 -17 16 -29 23 -27 21 7 20 43 -2 63 -11 10 -20 26 -20 36 0
10 -18 55 -41 101 -22 46 -46 97 -53 113 -7 17 -28 60 -45 97 -18 37 -30 72
-27 77 4 5 2 12 -3 16 -6 3 -13 26 -17 51 -4 26 -15 54 -25 62 -11 9 -19 27
-19 39 0 24 10 29 26 13 5 -5 48 -29 95 -52 59 -30 83 -38 75 -26 -6 10 -14
18 -17 18 -3 0 -18 12 -33 26 -14 15 -54 41 -88 58 -53 27 -64 36 -71 66 -21
87 -33 113 -64 143 -18 17 -33 37 -33 43 0 19 -36 44 -66 46 -16 1 -37 8 -46
16 -10 8 -22 11 -30 6 -7 -5 -29 -9 -48 -9 -19 -1 -46 -5 -58 -9 -24 -8 -24
-7 -18 51 3 33 11 82 16 109 6 27 17 81 25 119 8 39 19 90 25 115 6 25 14 57
17 73 3 15 9 30 14 33 5 3 9 13 9 23 0 20 25 109 42 151 23 56 27 66 33 90 8
32 32 94 57 145 20 42 51 61 138 84 25 7 58 16 74 21 29 9 81 1 165 -26 24 -8
46 -12 48 -10 8 7 -51 56 -74 62 -13 4 -23 10 -23 14 0 18 30 28 97 32 56 3
74 0 78 -11 4 -11 19 -12 67 -8 54 5 63 3 87 -19 31 -29 51 -31 51 -4 0 22 28
40 64 40 14 0 28 5 31 10 3 6 21 10 40 10 41 0 58 19 18 21 -57 3 -115 1 -154
-5 -27 -4 -38 -3 -34 4 3 5 11 10 16 10 5 0 39 23 74 50 35 28 69 50 74 50 17
0 24 22 10 32 -11 8 -10 9 3 4 21 -6 84 29 98 54 14 27 59 34 81 14 11 -9 19
-23 19 -31 0 -10 6 -8 21 6 14 13 20 27 16 41 -7 26 14 31 112 27 46 -2 76 -8
79 -15 2 -7 8 -12 13 -12 13 0 11 38 -3 46 -13 9 17 34 42 34 9 0 35 18 58 40
45 44 52 47 52 25 0 -8 -13 -24 -30 -37 -29 -21 -43 -68 -20 -68 6 0 10 -8 10
-17 0 -21 29 -53 48 -53 11 0 13 9 8 44 -8 51 9 89 35 81 21 -7 33 44 19 81
-6 14 -10 32 -10 40 0 21 67 83 98 90 15 4 38 15 52 25 32 23 33 23 72 -1z
m-1245 -185 c32 -19 63 -35 69 -35 15 0 44 -44 44 -67 0 -29 49 -76 73 -69 31
8 43 -8 39 -51 -3 -34 -9 -40 -50 -61 -26 -13 -63 -34 -82 -48 -21 -16 -42
-23 -55 -20 -11 3 -30 6 -43 6 -32 0 -40 28 -13 46 21 15 29 44 13 44 -5 0
-17 -9 -28 -21 -28 -31 -65 -47 -125 -55 -30 -3 -64 -13 -76 -20 -12 -8 -29
-14 -37 -14 -8 0 -38 -13 -66 -30 -28 -16 -53 -30 -56 -30 -10 0 8 41 32 77
13 20 24 42 24 51 0 8 16 36 35 62 20 27 40 62 46 79 6 17 15 31 19 31 5 0 35
32 66 70 43 52 63 69 76 64 12 -3 18 0 18 10 0 23 12 20 77 -19z m256 -12 c-7
-2 -19 -2 -25 0 -7 3 -2 5 12 5 14 0 19 -2 13 -5z m117 -73 c26 0 31 -3 22
-12 -7 -7 -12 -19 -12 -27 0 -13 -59 -58 -64 -49 -1 2 -8 16 -14 32 -12 27
-14 27 -31 12 -35 -32 -111 -12 -111 30 0 16 5 17 28 5 11 -6 28 -4 47 5 17 7
46 11 65 9 19 -3 51 -5 70 -5z m5739 -42 c-6 -10 -7 -23 -3 -29 3 -6 -2 -17
-12 -25 -14 -11 -15 -17 -6 -20 6 -3 12 -10 12 -16 0 -6 -6 -6 -15 2 -12 10
-16 8 -24 -13 -8 -22 -31 -46 -31 -34 0 16 43 136 56 156 12 18 18 20 24 10 5
-7 4 -21 -1 -31z m-3151 -110 c-6 -18 -28 -21 -28 -4 0 9 7 16 16 16 9 0 14
-5 12 -12z m-2808 -151 c0 -3 -9 -3 -20 0 -20 5 -25 15 -14 26 6 6 34 -16 34
-26z m2807 -93 c-3 -3 -12 -4 -19 -1 -8 3 -5 6 6 6 11 1 17 -2 13 -5z m-2754
-131 c8 -7 -11 -33 -24 -33 -5 0 -9 9 -9 20 0 19 20 27 33 13z m109 -25 c-7
-7 -12 -8 -12 -2 0 14 12 26 19 19 2 -3 -1 -11 -7 -17z m2423 -7 c3 -5 1 -12
-5 -16 -5 -3 -10 1 -10 9 0 18 6 21 15 7z m-2495 -21 c0 -5 -4 -10 -10 -10 -5
0 -10 5 -10 10 0 6 5 10 10 10 6 0 10 -4 10 -10z m-100 -20 c0 -5 -8 -10 -17
-10 -15 0 -16 2 -3 10 19 12 20 12 20 0z m2660 -11 c13 -24 13 -24 -21 -32
-19 -5 -34 -1 -53 14 -33 26 -25 39 24 39 30 0 42 -5 50 -21z m-2565 -20 c4
-11 4 -31 1 -44 -6 -22 -11 -24 -61 -22 -30 1 -55 5 -55 8 0 3 11 16 25 29 14
13 25 18 25 12 0 -14 46 -16 54 -3 3 5 -3 11 -14 14 -26 7 -26 27 -1 27 11 0
23 -9 26 -21z m-165 -44 c-7 -9 -15 -13 -17 -11 -7 7 7 26 19 26 6 0 6 -6 -2
-15z m4207 -571 c-3 -3 -12 -4 -19 -1 -8 3 -5 6 6 6 11 1 17 -2 13 -5z m39
-102 c-10 -10 -29 15 -21 28 6 9 10 8 17 -4 6 -10 7 -20 4 -24z m-4191 -61
c10 -14 36 -39 58 -56 47 -35 57 -55 29 -55 -26 0 -86 25 -99 42 -8 11 -43
103 -43 115 0 9 39 -23 55 -46z m4995 -81 c0 -5 -4 -10 -10 -10 -5 0 -10 5
-10 10 0 6 5 10 10 10 6 0 10 -4 10 -10z m-790 -100 c0 -5 -2 -10 -4 -10 -3 0
-8 5 -11 10 -3 6 -1 10 4 10 6 0 11 -4 11 -10z m-4790 -140 c0 -5 -4 -10 -10
-10 -5 0 -10 5 -10 10 0 6 5 10 10 10 6 0 10 -4 10 -10z m6855 -1221 c9 -38
-2 -51 -11 -14 -5 20 -11 25 -25 22 -21 -6 -26 8 -6 16 26 11 36 6 42 -24z
m25 -59 c0 -5 -2 -10 -4 -10 -3 0 -8 5 -11 10 -3 6 -1 10 4 10 6 0 11 -4 11
-10z m350 6 c0 -2 -7 -7 -16 -10 -8 -3 -12 -2 -9 4 6 10 25 14 25 6z m-311
-112 c3 -16 1 -17 -13 -5 -19 16 -21 34 -3 29 6 -3 14 -13 16 -24z m-4504 -14
c3 -5 1 -10 -4 -10 -6 0 -11 5 -11 10 0 6 2 10 4 10 3 0 8 -4 11 -10z m4555
-128 c0 -15 -2 -15 -10 -2 -13 20 -13 33 0 25 6 -3 10 -14 10 -23z m-214 -38
c-3 -9 -6 -21 -6 -27 0 -16 -20 14 -20 31 0 6 7 12 16 12 11 0 14 -5 10 -16z
m-276 -79 c0 -13 4 -35 10 -49 16 -42 2 -29 -21 19 -11 24 -18 49 -14 55 10
16 25 1 25 -25z m-3880 -80 c0 -8 -4 -15 -10 -15 -5 0 -10 7 -10 15 0 8 5 15
10 15 6 0 10 -7 10 -15z m3930 -9 c0 -11 -19 -15 -25 -6 -3 5 1 10 9 10 9 0
16 -2 16 -4z m320 -53 c0 -18 -44 0 -48 20 -3 13 1 14 22 4 14 -7 26 -17 26
-24z m314 -4 c-3 -5 -10 -7 -15 -3 -5 3 -7 10 -3 15 3 5 10 7 15 3 5 -3 7 -10
3 -15z m-4499 -19 c-3 -5 -10 -10 -16 -10 -5 0 -9 5 -9 10 0 6 7 10 16 10 8 0
12 -4 9 -10z m-2045 -22 c0 -7 -5 -20 -10 -28 -8 -12 -10 -9 -10 13 0 15 5 27
10 27 6 0 10 -6 10 -12z m5644 -94 c9 -24 7 -28 -9 -14 -17 14 -20 30 -6 30 5
0 12 -7 15 -16z m76 -165 c0 -6 -4 -7 -10 -4 -5 3 -10 11 -10 16 0 6 5 7 10 4
6 -3 10 -11 10 -16z m94 -14 c3 -8 1 -15 -4 -15 -6 0 -10 7 -10 15 0 8 2 15 4
15 2 0 6 -7 10 -15z m6 -85 c0 -5 -2 -10 -4 -10 -3 0 -8 5 -11 10 -3 6 -1 10
4 10 6 0 11 -4 11 -10z m350 -81 c0 -6 -4 -7 -10 -4 -5 3 -10 11 -10 16 0 6 5
7 10 4 6 -3 10 -11 10 -16z m-6180 -109 c0 -5 -2 -10 -4 -10 -3 0 -8 5 -11 10
-3 6 -1 10 4 10 6 0 11 -4 11 -10z m100 -50 c0 -5 -2 -10 -4 -10 -3 0 -8 5
-11 10 -3 6 -1 10 4 10 6 0 11 -4 11 -10z m5770 -11 c0 -5 -4 -9 -10 -9 -5 0
-10 7 -10 16 0 8 5 12 10 9 6 -3 10 -10 10 -16z m-5863 -11 c-3 -8 -6 -5 -6 6
-1 11 2 17 5 13 3 -3 4 -12 1 -19z m23 -70 c0 -10 -4 -18 -9 -18 -11 0 -19 30
-13 49 4 11 6 11 13 0 5 -8 9 -22 9 -31z m-3 -130 c-3 -8 -6 -5 -6 6 -1 11 2
17 5 13 3 -3 4 -12 1 -19z m4173 -2 c0 -11 -19 -15 -25 -6 -3 5 1 10 9 10 9 0
16 -2 16 -4z m-4018 -196 c12 -30 34 -71 49 -91 16 -20 29 -40 29 -45 0 -4 6
-15 14 -23 17 -20 30 -61 19 -61 -4 0 -27 29 -49 63 -37 54 -56 91 -94 179 -6
13 -15 30 -22 39 -6 9 -8 25 -4 35 6 16 9 14 22 -12 9 -16 25 -54 36 -84z
m504 63 c-10 -10 -19 5 -10 18 6 11 8 11 12 0 2 -7 1 -15 -2 -18z m-636 -54
c0 -16 -4 -29 -10 -29 -5 0 -10 16 -10 36 0 21 4 33 10 29 6 -3 10 -19 10 -36z
m664 0 c-9 -15 -34 -10 -28 5 3 8 12 12 20 9 8 -3 11 -9 8 -14z m-561 -99 c18
-23 37 -59 37 -69 0 -6 12 -23 26 -38 23 -25 24 -28 8 -32 -23 -4 -74 52 -74
82 0 12 -7 35 -15 51 -8 15 -15 42 -14 60 l1 31 10 -35 c5 -19 15 -42 21 -50z
m565 42 c6 -18 -15 -14 -22 4 -4 10 -1 14 6 12 6 -2 14 -10 16 -16z m-83 -72
c50 3 55 1 55 -25 0 -20 -6 -25 -35 -31 -31 -5 -38 -2 -70 31 -19 21 -35 39
-35 41 0 2 12 -1 27 -7 15 -6 41 -9 58 -9z m-571 -21 c-5 -9 -34 -13 -34 -5 0
2 3 12 6 20 5 13 9 14 20 5 8 -6 11 -15 8 -20z m356 21 c0 -14 27 -13 32 1 6
19 42 1 61 -30 9 -16 17 -32 17 -35 0 -11 -86 -6 -102 7 -9 6 -23 24 -33 40
-17 26 -17 27 4 27 11 0 21 -4 21 -10z m-480 -18 c0 -10 -7 -27 -15 -39 -8
-12 -12 -28 -9 -36 8 -22 -12 -29 -27 -10 -11 13 -11 17 -1 20 6 3 12 10 12
17 0 18 24 66 33 66 4 0 7 -8 7 -18z m190 -81 c0 -10 -11 -23 -24 -29 -20 -9
-25 -8 -29 9 -3 13 -14 19 -31 19 -26 0 -35 13 -16 25 6 4 18 1 26 -6 13 -11
18 -10 26 4 7 13 13 15 29 7 10 -6 19 -19 19 -29z m-478 -23 c-13 -13 -26 8
-17 30 6 16 7 16 17 -1 7 -13 7 -22 0 -29z m183 -8 c10 -11 26 -20 37 -20 32
0 20 -19 -19 -29 -21 -6 -44 -11 -51 -11 -15 0 -62 48 -62 63 0 6 6 3 13 -7
12 -16 14 -16 31 3 24 26 28 26 51 1z m155 -18 c-6 -2 -18 -1 -26 2 -14 5 -14
9 -3 22 12 14 14 14 26 -2 9 -13 10 -20 3 -22z m-281 5 c13 -16 5 -27 -21 -27
-11 0 -18 7 -18 20 0 23 22 27 39 7z m987 -874 c-10 -10 -19 5 -10 18 6 11 8
11 12 0 2 -7 1 -15 -2 -18z"/>
<path d="M3430 8450 c0 -5 5 -10 10 -10 6 0 10 5 10 10 0 6 -4 10 -10 10 -5 0
-10 -4 -10 -10z"/>
<path d="M3636 8453 c-3 -3 -6 -20 -6 -36 0 -25 2 -28 15 -17 8 7 15 21 15 31
0 19 -13 32 -24 22z"/>
<path d="M2772 7903 c2 -10 11 -19 21 -21 24 -5 21 15 -4 28 -18 10 -20 9 -17
-7z"/>
<path d="M3163 7630 c-22 -9 -30 -30 -17 -43 9 -8 64 34 58 45 -6 10 -12 9
-41 -2z"/>
<path d="M3120 7555 c0 -8 5 -15 10 -15 6 0 10 7 10 15 0 8 -4 15 -10 15 -5 0
-10 -7 -10 -15z"/>
<path d="M3108 7203 c6 -2 18 -2 25 0 6 3 1 5 -13 5 -14 0 -19 -2 -12 -5z"/>
<path d="M2804 6895 c-16 -12 -16 -14 -3 -15 9 0 32 7 50 15 l34 14 -31 1
c-16 0 -39 -7 -50 -15z"/>
<path d="M2772 6853 c-24 -21 -28 -38 -18 -75 11 -38 49 -40 40 -2 -4 14 -1
36 7 50 18 34 0 51 -29 27z"/>
<path d="M2750 6024 c0 -8 5 -12 10 -9 6 4 8 11 5 16 -9 14 -15 11 -15 -7z"/>
<path d="M2730 5945 c-6 -14 -10 -38 -10 -51 0 -14 -4 -33 -9 -42 -17 -34 -23
-92 -9 -92 21 0 37 35 43 92 3 29 7 65 11 80 7 35 -13 46 -26 13z"/>
<path d="M2175 5870 c-7 -12 2 -30 16 -30 5 0 9 9 9 20 0 21 -15 27 -25 10z"/>
<path d="M2867 5806 c-7 -18 3 -56 14 -56 5 0 9 16 9 35 0 35 -13 47 -23 21z"/>
<path d="M2353 5703 c-7 -3 -13 -11 -13 -20 0 -8 -11 -29 -23 -46 -16 -22 -25
-48 -27 -82 -4 -83 -3 -105 4 -112 14 -14 27 23 23 65 -4 37 -1 45 22 63 14
11 27 32 28 46 1 15 7 31 13 37 24 24 4 60 -27 49z"/>
<path d="M3000 5565 c0 -8 5 -15 10 -15 6 0 10 7 10 15 0 8 -4 15 -10 15 -5 0
-10 -7 -10 -15z"/>
<path d="M2343 5499 c-6 -8 -15 -28 -19 -44 -4 -17 -11 -35 -16 -41 -4 -6 -5
-21 0 -34 l8 -22 17 26 c14 21 15 29 5 46 -11 18 -10 23 5 35 10 7 17 21 15
31 -2 14 -5 15 -15 3z"/>
<path d="M2456 5393 c7 -32 21 -50 30 -40 8 7 -18 67 -29 67 -4 0 -4 -12 -1
-27z"/>
<path d="M2225 5340 c-8 -13 4 -32 16 -25 12 8 12 35 0 35 -6 0 -13 -4 -16
-10z"/>
<path d="M2190 5260 c0 -11 4 -20 9 -20 13 0 32 26 24 33 -13 14 -33 6 -33
-13z"/>
<path d="M2170 5228 c0 -6 -7 -19 -16 -29 -15 -16 -14 -19 5 -31 28 -17 26
-28 -4 -28 -15 0 -25 -6 -25 -15 0 -9 6 -12 15 -9 21 8 19 -13 -2 -26 -13 -8
-14 -13 -5 -16 18 -8 15 -22 -5 -20 -11 0 -18 -6 -17 -16 0 -10 1 -36 2 -58 1
-27 7 -40 16 -40 8 0 23 -12 34 -27 17 -23 22 -25 35 -15 12 10 14 30 11 93
-2 43 1 109 5 147 8 65 0 99 -20 86 -5 -3 -9 0 -9 5 0 6 -4 11 -10 11 -5 0
-10 -5 -10 -12z"/>
<path d="M2265 5110 c3 -5 8 -10 11 -10 2 0 4 5 4 10 0 6 -5 10 -11 10 -5 0
-7 -4 -4 -10z"/>
<path d="M2284 5060 c3 -19 13 -41 21 -50 8 -9 15 -30 15 -47 0 -17 8 -38 20
-48 12 -11 20 -31 20 -52 0 -22 5 -33 14 -33 10 0 19 -19 26 -55 7 -31 18 -59
28 -64 9 -5 14 -12 10 -16 -3 -4 5 -23 18 -42 15 -23 22 -43 18 -58 -4 -16 1
-28 18 -41 14 -12 22 -27 20 -42 -2 -12 8 -46 21 -75 14 -28 30 -68 37 -87 7
-19 17 -39 22 -44 4 -6 8 -18 8 -28 0 -24 46 -46 62 -30 9 9 6 17 -10 35 -12
13 -22 31 -22 40 0 9 -11 42 -25 73 -14 31 -25 61 -25 67 0 19 -60 137 -70
137 -5 0 -10 9 -10 20 0 11 -4 28 -9 38 -6 9 -24 48 -42 85 -18 37 -36 70 -41
73 -4 3 -8 16 -8 28 0 13 -7 29 -15 36 -8 7 -15 19 -15 27 0 9 -8 32 -19 52
-10 20 -27 55 -37 79 -22 55 -39 67 -30 22z"/>
<path d="M2125 4890 c-4 -11 -5 -37 -4 -58 2 -21 0 -42 -3 -47 -3 -6 -6 -26
-6 -46 0 -21 -3 -47 -7 -58 -5 -17 2 -31 32 -61 44 -46 79 -52 110 -17 18 19
20 29 13 78 -9 63 -38 135 -77 192 -29 41 -48 47 -58 17z"/>
<path d="M4601 10002 c-14 -26 -7 -42 10 -25 6 6 9 19 7 29 -3 17 -5 17 -17
-4z"/>
<path d="M4575 9931 c-8 -17 -15 -37 -15 -46 0 -8 -7 -15 -15 -15 -12 0 -14
-7 -9 -27 6 -21 4 -25 -9 -20 -8 3 -21 -1 -28 -10 -11 -13 -10 -17 6 -29 51
-38 85 5 100 128 6 47 -10 57 -30 19z"/>
<path d="M4480 9741 c0 -5 5 -13 10 -16 6 -3 10 -2 10 4 0 5 -4 13 -10 16 -5
3 -10 2 -10 -4z"/>
<path d="M7030 9430 c0 -5 20 -10 45 -10 25 0 45 5 45 10 0 6 -20 10 -45 10
-25 0 -45 -4 -45 -10z"/>
<path d="M3060 8961 c0 -9 60 -24 68 -17 2 3 1 9 -3 15 -7 13 -65 15 -65 2z"/>
<path d="M5213 8591 c-24 -21 -43 -44 -43 -50 0 -19 -19 -12 -36 14 -9 14 -21
25 -27 25 -6 0 -18 7 -28 16 -23 21 -143 32 -154 15 -10 -17 -4 -21 41 -28 42
-7 116 -59 152 -107 18 -23 22 -39 18 -65 -3 -19 -1 -40 4 -46 6 -7 7 -30 2
-57 -7 -33 -5 -50 4 -63 8 -10 11 -29 8 -42 -4 -13 -1 -30 6 -38 6 -8 9 -23 6
-33 -4 -11 -1 -31 5 -46 12 -26 29 -35 29 -15 0 5 5 7 10 4 15 -9 12 -25 -5
-25 -15 0 -20 -26 -9 -54 3 -9 13 -16 21 -16 15 0 42 -27 43 -42 0 -5 -7 -8
-16 -8 -22 0 -9 -39 22 -65 15 -14 21 -24 14 -31 -12 -12 109 -123 167 -153
57 -28 76 -27 118 10 27 24 35 39 33 58 -3 28 -7 29 -90 16 -45 -7 -49 -6 -77
24 -58 62 -120 214 -147 361 -9 52 -21 102 -25 110 -4 9 -10 43 -14 75 -3 33
-8 75 -11 93 -7 48 21 137 52 161 14 11 23 25 19 31 -13 20 -51 8 -92 -29z"/>
<path d="M4880 8550 c-8 -5 -27 -10 -41 -10 -15 0 -37 -8 -50 -19 -13 -10 -34
-21 -46 -25 -12 -4 -38 -22 -58 -40 l-36 -34 27 -6 c22 -6 31 -3 44 14 12 16
22 20 41 15 17 -4 30 -1 38 9 8 9 20 16 28 16 8 0 28 10 45 21 16 12 41 22 54
22 34 0 39 13 12 31 -26 18 -37 20 -58 6z"/>
<path d="M5254 8505 c-7 -18 3 -35 20 -35 15 0 18 -14 40 -163 16 -103 22
-121 37 -112 24 15 1 221 -32 288 -20 38 -54 51 -65 22z"/>
<path d="M8464 7266 c-4 -10 -2 -22 4 -28 8 -8 13 -7 18 6 4 10 2 22 -4 28 -8
8 -13 7 -18 -6z"/>
<path d="M8730 6950 c0 -20 32 -31 70 -25 40 7 56 24 23 26 -10 0 -35 1 -55 3
-21 2 -38 0 -38 -4z"/>
<path d="M7280 6867 c34 -29 70 -93 70 -121 0 -13 9 -31 19 -40 10 -9 22 -37
26 -62 8 -55 36 -61 56 -11 7 17 14 35 16 39 3 4 -8 8 -24 10 -21 2 -27 8 -25
22 4 24 -42 112 -81 154 -20 20 -40 32 -56 32 l-26 -1 25 -22z"/>
<path d="M8616 6795 c-9 -9 -14 -21 -10 -26 3 -5 -6 -13 -20 -19 -27 -10 -36
-39 -13 -41 6 0 -8 -7 -33 -14 -81 -23 -166 -66 -150 -75 8 -5 34 -5 57 -1
l41 8 4 -36 c6 -48 0 -69 -22 -76 -12 -4 -16 -12 -13 -26 4 -12 -3 -32 -16
-49 -27 -37 -27 -60 -1 -60 11 0 20 5 20 11 0 6 16 25 35 42 19 17 35 34 35
38 0 7 37 72 87 154 7 11 17 31 24 45 6 14 18 39 26 55 30 61 -8 113 -51 70z
m-66 -215 c0 -5 -4 -10 -10 -10 -5 0 -10 5 -10 10 0 6 5 10 10 10 6 0 10 -4
10 -10z"/>
<path d="M8692 6793 c5 -25 28 -28 28 -4 0 12 -6 21 -16 21 -9 0 -14 -7 -12
-17z"/>
<path d="M8671 6651 c-11 -7 -11 -13 -1 -32 18 -34 18 -34 40 -14 18 16 22 16
38 4 9 -8 34 -24 55 -34 21 -11 37 -27 37 -37 0 -9 6 -23 13 -30 8 -7 26 -32
41 -56 25 -40 46 -54 46 -31 0 19 -58 115 -90 149 -17 18 -30 35 -30 39 0 4
-17 17 -39 29 -40 23 -86 28 -110 13z"/>
<path d="M8620 6510 c0 -5 5 -10 10 -10 6 0 10 5 10 10 0 6 -4 10 -10 10 -5 0
-10 -4 -10 -10z"/>
<path d="M8841 6393 c12 -21 27 -42 34 -48 7 -5 18 -28 25 -50 7 -22 22 -55
33 -74 11 -18 32 -56 46 -84 13 -28 26 -46 29 -39 4 14 -45 160 -64 187 -8 11
-14 27 -14 37 0 10 -5 18 -10 18 -6 0 -16 12 -22 28 -17 39 -39 62 -59 62 -18
0 -17 -2 2 -37z"/>
<path d="M6550 6349 c0 -5 5 -7 10 -4 6 3 10 8 10 11 0 2 -4 4 -10 4 -5 0 -10
-5 -10 -11z"/>
<path d="M8400 6334 c0 -9 5 -14 12 -12 18 6 21 28 4 28 -9 0 -16 -7 -16 -16z"/>
<path d="M8516 6303 c14 -21 28 -40 32 -43 4 -3 13 -17 21 -32 8 -16 18 -28
23 -28 15 0 8 27 -12 45 -11 10 -20 27 -20 37 0 10 -7 21 -15 24 -8 4 -15 12
-15 20 0 8 -9 14 -20 14 -18 0 -18 -2 6 -37z"/>
<path d="M8645 6211 c-3 -5 -1 -13 5 -16 15 -9 90 4 90 16 0 12 -87 12 -95 0z"/>
<path d="M8850 6204 c-25 -13 -25 -14 -2 -14 34 0 26 -17 -9 -18 -17 0 -37 -6
-45 -13 -13 -10 -12 -14 3 -31 16 -18 16 -19 -5 -25 -22 -5 -72 -77 -72 -101
0 -22 28 -12 49 16 31 41 63 79 98 116 17 18 32 39 33 47 6 42 -6 48 -50 23z"/>
<path d="M8606 6172 c-3 -5 1 -15 9 -22 16 -14 20 -3 6 19 -5 8 -11 9 -15 3z"/>
<path d="M8473 6155 c-3 -9 -3 -18 0 -22 10 -10 37 6 37 22 0 20 -29 20 -37 0z"/>
<path d="M8448 6059 c-10 -10 -24 -16 -31 -13 -8 3 -20 -2 -27 -11 -11 -13
-10 -15 3 -9 10 3 20 -2 26 -15 14 -26 14 -31 -4 -31 -8 0 -15 5 -15 10 0 18
-30 11 -32 -7 0 -10 -2 -23 -2 -30 -1 -7 -7 -18 -14 -25 -6 -6 -12 -20 -12
-30 0 -10 -4 -18 -10 -18 -5 0 -9 -18 -8 -40 1 -21 -5 -46 -12 -54 -7 -9 -10
-27 -8 -41 3 -14 1 -28 -3 -31 -5 -3 -9 -17 -9 -30 0 -43 24 -22 37 32 7 27
17 57 23 67 8 14 8 22 -1 33 -10 12 -9 16 8 20 18 5 73 105 73 133 0 6 5 11
11 11 11 0 39 60 39 85 0 20 -11 18 -32 -6z"/>
<path d="M8702 5958 c-14 -14 -16 -28 -3 -28 9 0 24 30 18 36 -2 2 -9 -2 -15
-8z"/>
<path d="M1367 5933 c-4 -6 -10 -39 -14 -73 -4 -47 -3 -64 7 -70 22 -13 30 -2
29 38 0 57 -14 119 -22 105z"/>
<path d="M4510 5906 c0 -7 8 -20 17 -27 15 -12 16 -12 10 4 -4 10 -7 23 -7 28
0 5 -4 9 -10 9 -5 0 -10 -6 -10 -14z"/>
<path d="M8585 5858 c-20 -17 -47 -52 -60 -77 -19 -36 -24 -41 -25 -23 0 31
-38 112 -51 112 -6 0 -9 -6 -6 -14 3 -8 9 -32 13 -53 3 -21 13 -46 21 -55 9
-10 13 -25 9 -34 -4 -9 0 -24 7 -33 8 -9 17 -28 21 -43 3 -16 11 -28 16 -28
13 0 13 31 1 63 -8 21 -3 30 44 73 29 27 65 57 79 67 18 12 26 27 26 47 0 27
-3 30 -30 30 -19 0 -42 -11 -65 -32z"/>
<path d="M8704 5757 c-11 -13 -10 -275 2 -306 11 -32 26 10 28 81 2 41 5 79 8
84 3 5 4 36 3 70 -2 79 -15 101 -41 71z"/>
<path d="M8350 5647 c0 -7 9 -19 20 -27 12 -8 32 -34 46 -57 22 -38 44 -56 44
-36 0 9 -50 95 -68 116 -18 20 -42 23 -42 4z"/>
<path d="M8265 5610 c-3 -5 -1 -10 4 -10 6 0 11 5 11 10 0 6 -2 10 -4 10 -3 0
-8 -4 -11 -10z"/>
<path d="M8550 5551 c0 -12 5 -21 10 -21 6 0 10 6 10 14 0 8 -4 18 -10 21 -5
3 -10 -3 -10 -14z"/>
<path d="M8260 5501 c0 -31 14 -49 25 -32 8 13 -5 61 -16 61 -5 0 -9 -13 -9
-29z"/>
<path d="M8460 5488 c0 -7 5 -20 10 -28 8 -12 10 -11 10 7 0 12 -4 25 -10 28
-5 3 -10 0 -10 -7z"/>
<path d="M8567 5448 c-9 -7 -17 -20 -19 -28 -3 -14 -12 -29 -35 -55 -7 -7 -13
-20 -13 -27 0 -10 3 -9 10 2 5 8 20 15 32 15 18 0 23 6 23 25 1 20 5 24 23 22
19 -3 22 1 22 27 0 33 -15 40 -43 19z"/>
<path d="M8709 5423 c0 -5 -2 -17 -5 -28 -2 -11 -1 -27 2 -35 4 -13 6 -13 14
0 13 20 13 70 0 70 -5 0 -10 -3 -11 -7z"/>
<path d="M8271 5352 c0 -57 11 -93 25 -79 14 13 -1 137 -16 137 -5 0 -9 -26
-9 -58z"/>
<path d="M8580 5293 c1 -19 19 -35 36 -31 29 5 23 33 -8 36 -16 2 -28 0 -28
-5z"/>
<path d="M8491 5276 c-8 -10 -9 -16 -1 -21 13 -8 30 3 30 21 0 18 -14 18 -29
0z"/>
<path d="M8650 5267 c0 -16 47 -44 56 -34 7 7 -35 46 -48 47 -5 0 -8 -6 -8
-13z"/>
<path d="M8292 5239 c2 -7 10 -15 17 -17 8 -3 12 1 9 9 -2 7 -10 15 -17 17 -8
3 -12 -1 -9 -9z"/>
<path d="M8392 5238 c-7 -7 -18 -13 -23 -13 -13 0 -60 -82 -57 -98 1 -7 -10
-31 -25 -54 -15 -24 -27 -50 -27 -58 0 -8 -5 -24 -12 -34 -6 -10 -8 -26 -4
-36 5 -14 16 -5 56 48 51 67 79 94 67 65 -3 -9 5 -37 19 -64 13 -26 24 -55 24
-65 0 -10 5 -21 10 -24 14 -9 12 55 -5 150 -18 96 -17 95 -5 95 5 0 7 -7 4
-15 -11 -28 15 -15 31 15 22 42 19 57 -6 29 l-21 -24 6 30 c8 39 -12 73 -32
53z"/>
<path d="M8830 5118 c0 -18 18 -34 28 -24 3 4 -2 14 -11 23 -16 16 -17 16 -17
1z"/>
<path d="M9012 5055 c0 -16 2 -22 5 -12 2 9 2 23 0 30 -3 6 -5 -1 -5 -18z"/>
<path d="M8730 4728 c0 -8 7 -23 15 -34 15 -18 15 -18 13 10 -3 29 -28 50 -28
24z"/>
<path d="M8510 4701 c0 -6 5 -13 10 -16 6 -3 10 1 10 9 0 9 -4 16 -10 16 -5 0
-10 -4 -10 -9z"/>
<path d="M8780 4694 c0 -17 17 -36 24 -26 3 5 -1 15 -9 22 -8 7 -15 9 -15 4z"/>
<path d="M8526 4662 c-3 -5 1 -25 9 -43 l14 -34 0 30 c1 34 -13 63 -23 47z"/>
<path d="M9223 4559 c3 -24 6 -54 6 -66 1 -14 7 -23 16 -23 18 0 19 29 5 82
-16 56 -33 60 -27 7z"/>
<path d="M8770 4336 c0 -14 5 -26 10 -26 6 0 10 9 10 19 0 11 -4 23 -10 26 -6
4 -10 -5 -10 -19z"/>
<path d="M8640 4142 c0 -11 22 -32 32 -32 5 0 4 9 -2 20 -11 20 -30 28 -30 12z"/>
<path d="M8565 4087 c0 -29 5 -52 12 -54 15 -5 26 14 13 22 -5 3 -10 21 -10
40 0 19 -3 36 -7 38 -5 3 -8 -18 -8 -46z"/>
<path d="M9140 4061 c0 -17 5 -31 10 -31 6 0 10 11 10 24 0 14 -4 28 -10 31
-6 4 -10 -7 -10 -24z"/>
<path d="M5820 4015 c0 -3 9 -22 20 -42 11 -21 20 -44 20 -52 0 -8 3 -11 7 -8
13 13 33 -16 33 -49 0 -26 -4 -32 -15 -28 -9 4 -15 19 -15 35 0 36 -13 37 -28
4 -6 -14 -16 -25 -22 -25 -23 0 -100 -41 -109 -59 -9 -16 -7 -18 17 -14 26 4
26 4 8 -11 -11 -9 -25 -16 -31 -16 -15 0 -65 -48 -65 -63 0 -7 -3 -23 -7 -36
-4 -16 -3 -22 5 -17 12 7 26 -29 17 -44 -3 -5 -15 -10 -27 -10 -13 0 -18 -5
-15 -14 3 -8 -3 -26 -14 -39 -24 -32 -24 -37 1 -37 25 0 26 -12 2 -33 -14 -13
-17 -28 -15 -63 3 -32 -1 -52 -11 -63 -12 -13 -13 -25 -7 -47 4 -16 6 -34 4
-41 -2 -6 5 -17 16 -23 12 -6 21 -19 21 -29 0 -10 7 -24 15 -31 13 -10 15 -9
15 11 l0 23 22 -21 c11 -12 23 -37 25 -55 2 -18 10 -39 17 -47 11 -11 12 -18
3 -32 -9 -15 -7 -24 11 -48 13 -18 18 -32 12 -36 -18 -11 -11 -31 25 -68 19
-20 35 -39 35 -42 0 -13 -52 -115 -61 -120 -5 -4 -10 4 -11 17 -8 121 -60 320
-94 359 -8 8 -14 22 -14 30 0 8 -25 45 -55 82 -52 63 -75 80 -75 57 0 -5 4
-10 8 -10 10 0 33 -52 53 -119 7 -24 19 -45 25 -48 9 -3 11 -20 8 -51 -6 -65
18 -228 34 -225 15 4 15 -2 0 -28 -11 -17 -10 -22 6 -35 20 -14 20 -14 0 -29
-18 -13 -18 -16 -3 -42 11 -20 13 -37 8 -58 -5 -18 -4 -34 3 -42 7 -9 7 -13
-1 -13 -6 0 -11 -4 -11 -10 0 -5 6 -10 14 -10 24 0 30 -22 11 -36 -10 -7 -15
-20 -12 -28 4 -9 2 -18 -4 -21 -5 -4 -10 -23 -9 -43 0 -55 -11 -126 -21 -136
-5 -6 -9 -27 -9 -48 0 -21 -7 -55 -15 -75 -9 -20 -14 -42 -12 -47 2 -6 1 -58
-3 -116 -5 -60 -4 -110 1 -116 5 -6 9 -31 10 -55 1 -59 20 -129 36 -129 7 0
13 -7 13 -15 0 -8 13 -21 29 -29 16 -9 31 -22 34 -31 7 -17 52 -21 62 -4 4 5
0 18 -9 27 -29 33 -49 96 -46 147 2 28 4 66 5 85 4 66 16 145 32 205 8 33 19
78 23 100 21 112 177 484 269 645 11 19 41 82 66 140 62 140 75 169 96 210 14
28 49 133 49 147 0 2 -7 3 -15 3 -8 0 -15 -7 -15 -15 0 -8 -6 -15 -14 -15 -8
0 -22 -8 -32 -17 -10 -10 -27 -23 -38 -28 -12 -6 -30 -25 -41 -42 -24 -38 -44
-44 -69 -22 -28 27 -46 13 -46 -36 0 -25 -6 -50 -15 -59 -8 -8 -15 -22 -15
-31 0 -9 -18 -42 -40 -72 -22 -31 -40 -62 -40 -68 0 -7 -9 -20 -20 -30 -19
-17 -20 -17 -29 8 -5 14 -15 28 -21 32 -8 5 -9 20 -5 42 4 24 1 42 -11 60 -9
14 -18 50 -20 79 -2 43 0 56 16 67 10 7 24 25 31 40 11 24 9 33 -16 79 -32 60
-43 70 -67 62 -22 -7 -22 -7 2 102 27 115 23 104 43 141 9 18 17 45 17 62 0
21 6 32 19 36 11 3 23 15 26 26 4 10 10 19 15 19 6 0 5 -11 0 -26 -6 -15 -7
-32 -1 -42 6 -10 4 -20 -5 -30 -16 -16 -18 -55 -4 -83 8 -14 7 -25 -5 -42 -8
-13 -12 -27 -8 -30 3 -4 7 -32 8 -62 2 -41 -1 -55 -11 -55 -8 0 -14 -5 -14
-11 0 -6 6 -9 14 -6 21 8 39 -16 24 -31 -15 -15 -20 -79 -7 -88 6 -4 6 -11 -2
-20 -15 -19 1 -37 27 -32 18 3 19 17 17 248 -2 135 -3 263 -3 285 0 30 6 44
23 57 20 16 23 16 35 1 6 -9 12 -28 12 -41 0 -15 7 -26 19 -29 13 -3 17 -11
13 -25 -2 -11 -8 -15 -11 -10 -3 6 -5 -12 -5 -39 2 -70 2 -69 25 -69 18 0 20
-4 15 -27 -26 -108 -27 -118 -9 -130 15 -12 15 -15 -7 -38 -23 -24 -23 -25 -4
-46 18 -20 18 -22 1 -34 -22 -16 -22 -24 6 -57 20 -25 24 -27 47 -15 19 9 26
22 27 47 1 19 7 73 12 120 5 46 7 89 3 94 -3 6 -7 41 -8 80 -2 38 -7 72 -12
75 -4 3 -9 15 -10 26 -1 11 -4 35 -6 53 -1 18 -8 38 -14 44 -7 7 -12 22 -12
34 0 12 -6 27 -14 33 -8 7 -17 23 -20 37 -9 34 -68 123 -82 123 -6 1 -17 8
-24 16 -12 14 -30 20 -30 10z m-145 -355 c3 -5 -1 -10 -9 -10 -9 0 -16 5 -16
10 0 6 4 10 9 10 6 0 13 -4 16 -10z"/>
<path d="M9145 4000 c-8 -12 3 -87 15 -110 7 -13 10 -12 16 4 4 10 2 26 -3 36
-6 9 -9 28 -6 42 5 27 -11 46 -22 28z"/>
<path d="M9160 3855 c0 -8 7 -15 15 -15 9 0 12 6 9 15 -4 8 -10 15 -15 15 -5
0 -9 -7 -9 -15z"/>
<path d="M8379 3792 c-14 -9 -42 -33 -63 -52 -21 -19 -44 -37 -51 -40 -24 -9
-95 -104 -95 -127 0 -13 -6 -23 -14 -23 -14 0 -77 -138 -95 -208 -16 -64 -23
-202 -10 -202 7 0 9 -9 5 -24 -4 -15 0 -30 9 -39 13 -13 13 -16 0 -21 -17 -6
-20 -42 -4 -51 6 -5 4 -12 -8 -20 -15 -12 -16 -17 -5 -34 16 -27 15 -31 -3
-31 -17 0 -20 -16 -5 -25 6 -3 10 -10 10 -16 0 -5 -4 -9 -10 -9 -15 0 -50 -38
-50 -54 0 -8 -4 -18 -10 -21 -5 -3 -10 -20 -10 -37 0 -19 -9 -41 -22 -55 -18
-20 -20 -27 -11 -42 17 -28 -5 -71 -36 -71 -38 0 -121 -60 -128 -92 -4 -21
-11 -28 -29 -28 -13 0 -27 -7 -32 -16 -17 -31 -122 13 -128 54 -3 21 -71 88
-80 79 -4 -4 0 -15 9 -25 10 -10 17 -26 17 -35 0 -9 9 -22 20 -29 11 -7 20
-18 20 -25 0 -7 5 -13 12 -13 7 0 21 -11 33 -25 11 -14 34 -28 50 -31 17 -3
34 -9 39 -14 10 -10 112 41 130 65 23 28 95 57 129 51 119 -22 137 -21 180 16
14 13 41 34 60 48 38 27 91 115 100 168 8 41 0 40 -46 -2 -21 -19 -44 -36 -51
-39 -8 -3 -50 -28 -95 -56 -62 -39 -90 -51 -121 -51 -44 0 -52 13 -19 30 12 7
18 18 15 26 -7 19 3 44 19 44 8 0 17 10 20 23 4 12 20 49 36 81 16 33 29 66
29 74 0 9 6 23 13 31 24 28 46 104 52 176 12 157 26 232 62 320 55 140 133
295 175 352 21 29 38 55 38 58 0 11 -26 4 -51 -13z"/>
<path d="M8710 3756 c0 -8 5 -18 10 -21 6 -3 10 3 10 14 0 12 -4 21 -10 21 -5
0 -10 -6 -10 -14z"/>
<path d="M5940 3539 c0 -5 5 -7 10 -4 6 3 10 8 10 11 0 2 -4 4 -10 4 -5 0 -10
-5 -10 -11z"/>
<path d="M8630 3452 c0 -5 7 -15 15 -22 8 -7 15 -8 15 -2 0 5 -7 15 -15 22 -8
7 -15 8 -15 2z"/>
<path d="M8670 3391 c13 -25 33 -28 28 -4 -2 10 -11 19 -21 21 -16 3 -17 1 -7
-17z"/>
<path d="M8866 3295 c4 -8 10 -15 15 -15 5 0 9 7 9 15 0 8 -7 15 -15 15 -9 0
-12 -6 -9 -15z"/>
<path d="M5818 3153 c-22 -6 -22 -11 1 -48 11 -19 16 -42 14 -61 -4 -29 19
-65 33 -51 3 3 2 42 -2 86 -7 81 -9 84 -46 74z"/>
<path d="M6582 2788 c-7 -7 -12 -15 -12 -18 0 -4 33 -41 74 -82 60 -62 75 -84
81 -117 4 -23 14 -48 22 -57 9 -8 13 -24 10 -36 -4 -14 0 -26 11 -34 11 -9 12
-13 5 -14 -21 0 -15 -34 10 -58 39 -40 92 -82 102 -82 6 0 22 -7 37 -14 16 -8
49 -18 74 -22 37 -5 50 -13 63 -35 17 -30 36 -38 43 -17 8 23 -5 70 -21 76 -9
3 -23 14 -31 24 -8 10 -33 21 -55 25 -22 3 -47 11 -55 18 -8 7 -25 16 -38 20
-35 10 -49 43 -56 127 -9 115 -57 190 -160 247 -34 18 -65 40 -69 47 -10 17
-19 18 -35 2z"/>
<path d="M2180 2560 c0 -5 7 -10 15 -10 8 0 15 5 15 10 0 6 -7 10 -15 10 -8 0
-15 -4 -15 -10z"/>
<path d="M6102 2310 c-8 -21 -4 -31 21 -60 64 -76 86 -93 112 -88 19 4 24 1
22 -14 -2 -23 59 -49 89 -37 29 11 44 10 42 -3 -2 -8 27 -12 105 -14 83 -1
107 2 107 12 0 16 -39 54 -57 55 -7 1 -16 2 -20 4 -30 8 -89 19 -94 17 -4 -1
-49 7 -100 17 -83 16 -168 51 -169 69 -1 4 -12 20 -25 37 l-24 29 -9 -24z"/>
</g>
</svg>
